<?xml version="1.0" encoding="UTF-8" standalone="no"?>
<svg
   width="210mm"
   height="297mm"
   viewBox="0 0 210 297"
   version="1.1"
   id="svg13680"
   inkscape:version="1.1-alpha (a3582cb, 2021-02-01)"
   sodipodi:docname="panel_stage.svg"
   xmlns:inkscape="http://www.inkscape.org/namespaces/inkscape"
   xmlns:sodipodi="http://sodipodi.sourceforge.net/DTD/sodipodi-0.dtd"
   xmlns="http://www.w3.org/2000/svg"
   xmlns:svg="http://www.w3.org/2000/svg">
  <sodipodi:namedview
     id="namedview13682"
     pagecolor="#ffffff"
     bordercolor="#666666"
     borderopacity="1.0"
     objecttolerance="10.0"
     gridtolerance="10.0"
     guidetolerance="10.0"
     inkscape:pageshadow="2"
     inkscape:pageopacity="0.0"
     inkscape:pagecheckerboard="0"
     inkscape:document-units="mm"
     showgrid="false"
     inkscape:zoom="2"
     inkscape:cx="119.75"
     inkscape:cy="203.75"
     inkscape:window-width="1920"
     inkscape:window-height="1017"
     inkscape:window-x="-8"
     inkscape:window-y="-8"
     inkscape:window-maximized="1"
     inkscape:current-layer="layer1"
     showguides="true">
    <sodipodi:guide
       position="8.70976,192.936"
       inkscape:color="rgb(167,0,255)"
       inkscape:label="Measure"
       orientation="-1,0"
       id="guide15186" />
    <sodipodi:guide
       position="8.70976,192.936"
       inkscape:color="rgb(167,0,255)"
       inkscape:label=""
       orientation="-0,1"
       id="guide15188" />
    <sodipodi:guide
       position="8.70976,192.936"
       inkscape:color="rgb(167,0,255)"
       inkscape:label="Start"
       orientation="1,0"
       id="guide15190" />
    <sodipodi:guide
       position="8.70976,281.836"
       inkscape:color="rgb(167,0,255)"
       inkscape:label="End"
       orientation="-0,1"
       id="guide15192" />
    <sodipodi:guide
       position="8.70976,281.836"
       inkscape:color="rgb(167,0,255)"
       inkscape:label=""
       orientation="1,0"
       id="guide15194" />
    <sodipodi:guide
       position="8.70976,192.936"
       inkscape:color="rgb(167,0,255)"
       inkscape:label="Crossing 1"
       orientation="-0,1"
       id="guide15196" />
    <sodipodi:guide
       position="8.70976,281.836"
       inkscape:color="rgb(167,0,255)"
       inkscape:label="Crossing 2"
       orientation="-0,1"
       id="guide15198" />
  </sodipodi:namedview>
  <defs
     id="defs13677" />
  <g
     inkscape:label="Layer 1"
     inkscape:groupmode="layer"
     id="layer1">
    <g
       aria-label="STAGE"
       id="text12062-8-5-5-1-6-0"
       style="font-size:6.35px;line-height:1.25;display:inline;stroke-width:0.264583;fill:#0000ff">
      <path
         d="m 55.78439,26.989901 0.589112,-0.272852 q 0.08371,0.303858 0.306958,0.465088 0.223242,0.15813 0.570507,0.15813 0.328662,0 0.520899,-0.182934 0.195337,-0.182935 0.195337,-0.489893 0,-0.399976 -0.663526,-0.713135 -0.09302,-0.04651 -0.142627,-0.06821 -0.750341,-0.365869 -1.001489,-0.660424 -0.248047,-0.297657 -0.248047,-0.725537 0,-0.555005 0.375171,-0.89917 0.378272,-0.344165 0.989087,-0.344165 0.502295,0 0.840259,0.195336 0.337964,0.192237 0.468188,0.555005 l -0.576709,0.297657 q -0.136425,-0.213941 -0.300756,-0.31316 -0.161231,-0.09922 -0.372071,-0.09922 -0.297656,0 -0.474389,0.155029 -0.173633,0.155029 -0.173633,0.415478 0,0.409278 0.768945,0.762745 0.05891,0.02791 0.09302,0.04341 0.672827,0.310058 0.923974,0.607715 0.251148,0.294555 0.251148,0.737939 0,0.644922 -0.406177,1.026294 -0.406177,0.378271 -1.097607,0.378271 -0.57981,0 -0.95188,-0.26665 -0.36897,-0.26665 -0.483692,-0.762744 z"
         style="font-family:'Futura Md BT';-inkscape-font-specification:'Futura Md BT';fill:#0000ff"
         id="path17670" />
      <path
         d="m 60.996475,23.985433 v 3.91294 h -0.737939 v -3.91294 h -1.206128 v -0.626318 h 3.143994 v 0.626318 z"
         style="font-family:'Futura Md BT';-inkscape-font-specification:'Futura Md BT';fill:#0000ff"
         id="path17672" />
      <path
         d="m 63.256802,26.115536 h 1.265039 L 64.056754,25.07994 q -0.04031,-0.09922 -0.08372,-0.226343 -0.04341,-0.130224 -0.08682,-0.288354 -0.03721,0.148828 -0.08062,0.279053 -0.04031,0.127124 -0.08372,0.235644 z m 2.040186,1.782837 -0.514697,-1.168921 h -1.79834 l -0.5271,1.168921 h -0.775146 l 2.198315,-4.719092 2.195215,4.719092 z"
         style="font-family:'Futura Md BT';-inkscape-font-specification:'Futura Md BT';fill:#0000ff"
         id="path17674" />
      <path
         d="m 68.90607,25.572933 h 1.798339 q 0,0.04651 0.0031,0.130225 0.0093,0.220141 0.0093,0.297656 0,0.958081 -0.548804,1.488281 -0.548804,0.5302 -1.547192,0.5302 -0.558106,0 -0.995288,-0.164331 -0.437183,-0.164331 -0.765845,-0.496093 -0.322461,-0.328662 -0.496094,-0.772046 -0.170532,-0.443384 -0.170532,-0.948779 0,-0.514698 0.173633,-0.94878 0.176733,-0.434082 0.520898,-0.765844 0.331763,-0.325562 0.778247,-0.496094 0.446485,-0.170532 0.954981,-0.170532 0.536401,0 0.958081,0.195336 0.42478,0.195337 0.756543,0.598414 l -0.539502,0.406176 q -0.229444,-0.26665 -0.517798,-0.396875 -0.288355,-0.130224 -0.644922,-0.130224 -0.737939,0 -1.206128,0.474389 -0.465088,0.471289 -0.465088,1.227832 0,0.768946 0.465088,1.249536 0.468189,0.477491 1.212329,0.477491 0.63252,0 0.995288,-0.294556 0.362769,-0.294556 0.362769,-0.803052 v -0.06511 H 68.90607 Z"
         style="font-family:'Futura Md BT';-inkscape-font-specification:'Futura Md BT';fill:#0000ff"
         id="path17676" />
      <path
         d="m 71.491958,27.898373 v -4.539258 h 2.533179 v 0.626318 h -1.795239 v 1.137915 h 1.795239 v 0.648023 h -1.795239 v 1.466577 h 1.795239 v 0.660425 z"
         style="font-family:'Futura Md BT';-inkscape-font-specification:'Futura Md BT';fill:#0000ff"
         id="path17678" />
    </g>
    <g
       aria-label="ARM"
       id="text12062-82-3-1-9-6"
       style="font-size:5.64444px;line-height:1.25;display:inline;stroke-width:0.264583;fill:#0000ff">
      <path
         d="m 31.009241,45.729783 h 1.124478 l -0.413411,-0.920529 q -0.03583,-0.08819 -0.07441,-0.201193 -0.03858,-0.115755 -0.07717,-0.256315 -0.03307,0.132291 -0.07166,0.248046 -0.03583,0.112999 -0.07441,0.209462 z m 1.813497,1.584743 -0.457509,-1.03904 h -1.598523 l -0.468532,1.03904 h -0.689019 l 1.954057,-4.194745 1.9513,4.194745 z"
         style="font-family:'Futura Md BT';-inkscape-font-specification:'Futura Md BT';fill:#0000ff"
         id="path17692" />
      <path
         d="m 34.550796,44.999423 h 0.118512 q 0.520898,0 0.691774,-0.121267 0.170877,-0.121267 0.170877,-0.429948 0,-0.333485 -0.184657,-0.468532 -0.181901,-0.137804 -0.677994,-0.137804 h -0.118512 z m -0.04134,0.509874 v 1.805229 h -0.614604 v -4.034893 h 0.915016 q 0.402387,0 0.622873,0.05237 0.223242,0.05237 0.380338,0.173633 0.187413,0.146072 0.289388,0.377582 0.101975,0.23151 0.101975,0.507118 0,0.485069 -0.234266,0.760676 -0.234267,0.272852 -0.691775,0.327973 l 1.389061,1.835546 h -0.741384 l -1.342208,-1.805229 z"
         style="font-family:'Futura Md BT';-inkscape-font-specification:'Futura Md BT';fill:#0000ff"
         id="path17694" />
      <path
         d="m 40.34682,45.321884 q -0.01102,-0.04685 -0.03583,-0.259071 -0.02205,-0.176389 -0.03859,-0.292144 -0.0248,0.137804 -0.07166,0.275607 -0.0441,0.137804 -0.112999,0.28112 l -1.055576,2.149738 -1.055577,-2.193835 q -0.06614,-0.135048 -0.115755,-0.261827 -0.04685,-0.12678 -0.08268,-0.250803 -0.0028,0.126779 -0.02205,0.267339 -0.01654,0.137804 -0.05237,0.289388 l -0.432704,1.98713 h -0.60358 l 0.953602,-4.20577 1.190624,2.546613 q 0.02756,0.06063 0.08268,0.201193 0.05788,0.14056 0.137804,0.347266 0.05788,-0.173633 0.181901,-0.440972 0.03307,-0.07166 0.04961,-0.110243 l 1.163063,-2.543857 0.975651,4.20577 h -0.609093 z"
         style="font-family:'Futura Md BT';-inkscape-font-specification:'Futura Md BT';fill:#0000ff"
         id="path17696" />
    </g>
    <g
       aria-label="SAFE"
       id="text14664-0-4-6-1-7"
       style="font-size:5.64444px;line-height:1.25;display:inline;stroke-width:0.264583;fill:#0000ff">
      <path
         d="m 29.12133,81.313152 0.523654,-0.242535 q 0.07441,0.270096 0.272852,0.413412 0.198437,0.140559 0.507117,0.140559 0.292144,0 0.463021,-0.162608 0.173633,-0.162608 0.173633,-0.43546 0,-0.355533 -0.5898,-0.633897 -0.08268,-0.04134 -0.12678,-0.06063 -0.66697,-0.325217 -0.890212,-0.587044 -0.220486,-0.264583 -0.220486,-0.644922 0,-0.493337 0.333485,-0.799261 0.336241,-0.305924 0.879188,-0.305924 0.446484,0 0.746896,0.173632 0.300412,0.170877 0.416167,0.493338 l -0.512629,0.264583 q -0.121268,-0.190169 -0.26734,-0.278364 -0.143315,-0.08819 -0.330729,-0.08819 -0.264583,0 -0.421679,0.137803 -0.15434,0.137804 -0.15434,0.369314 0,0.363802 0.683506,0.677995 0.05237,0.0248 0.08268,0.03858 0.598068,0.275607 0.82131,0.54019 0.223242,0.261827 0.223242,0.655946 0,0.573263 -0.361046,0.912261 -0.361046,0.336241 -0.97565,0.336241 -0.515386,0 -0.846115,-0.237023 -0.327973,-0.237022 -0.429948,-0.677994 z"
         style="font-family:'Futura Md BT';-inkscape-font-specification:'Futura Md BT';fill:#0000ff"
         id="path17699" />
      <path
         d="m 33.302295,80.535939 h 1.124478 L 34.013362,79.61541 q -0.03583,-0.08819 -0.07441,-0.201193 -0.03859,-0.115755 -0.07717,-0.256315 -0.03307,0.132291 -0.07166,0.248047 -0.03583,0.112999 -0.07441,0.209461 z m 1.813497,1.584743 -0.457508,-1.03904 H 33.05976 l -0.468532,1.03904 h -0.689019 l 1.954057,-4.194745 1.951301,4.194745 z"
         style="font-family:'Futura Md BT';-inkscape-font-specification:'Futura Md BT';fill:#0000ff"
         id="path17701" />
      <path
         d="m 36.187905,82.120682 v -4.034893 h 2.251712 v 0.556727 H 36.84385 v 1.005967 h 1.595767 v 0.57602 H 36.84385 v 1.896179 z"
         style="font-family:'Futura Md BT';-inkscape-font-specification:'Futura Md BT';fill:#0000ff"
         id="path17703" />
      <path
         d="m 39.150685,82.120682 v -4.034893 h 2.251712 v 0.556727 H 39.80663 v 1.011479 h 1.595767 v 0.57602 H 39.80663 v 1.303623 h 1.595767 v 0.587044 z"
         style="font-family:'Futura Md BT';-inkscape-font-specification:'Futura Md BT';fill:#0000ff"
         id="path17705" />
    </g>
    <rect
       style="display:inline;fill:none;fill-opacity:1;stroke:#000000;stroke-width:0.5;stroke-miterlimit:4;stroke-dasharray:none;stroke-opacity:1"
       id="rect137-2-8-0-9-2-7"
       width="20"
       height="24"
       x="73.66188"
       y="49.629513"
       rx="1.2121212"
       ry="1.4545455" />
    <rect
       style="display:inline;fill:none;fill-opacity:1;stroke:#000000;stroke-width:0.51434;stroke-miterlimit:4;stroke-dasharray:none;stroke-opacity:1"
       id="rect88946-6-0"
       width="18"
       height="43"
       x="44.179741"
       y="41.1768"
       rx="1.0588242"
       ry="1.0000006" />
    <circle
       style="fill:none;fill-opacity:1;stroke:#999999;stroke-width:0.5;stroke-miterlimit:4;stroke-dasharray:none;stroke-dashoffset:0;stroke-opacity:1"
       id="path21306"
       cx="53.179741"
       cy="69.548401"
       r="6" />
    <rect
       style="display:inline;fill:none;fill-opacity:1;stroke:#ff0000;stroke-width:0.554627;stroke-miterlimit:4;stroke-dasharray:none;stroke-opacity:1"
       id="rect88946-6-0-5"
       width="20"
       height="45"
       x="43.179741"
       y="40.1768"
       rx="1"
       ry="1.0465122" />
    <circle
       style="fill:none;fill-opacity:1;stroke:#999999;stroke-width:0.5;stroke-miterlimit:4;stroke-dasharray:none;stroke-dashoffset:0;stroke-opacity:1"
       id="path21306-9"
       cx="83.704781"
       cy="64.309814"
       r="8" />
    <g
       aria-label="STAGE"
       id="text12062-82-3-1-9-6-4"
       style="font-size:5.64444px;line-height:1.25;display:inline;stroke-width:0.264583;fill:#0000ff">
      <path
         d="m 75.292187,46.604118 0.523654,-0.242535 q 0.07441,0.270096 0.272851,0.413412 0.198438,0.140559 0.507118,0.140559 0.292144,0 0.46302,-0.162608 0.173633,-0.162608 0.173633,-0.43546 0,-0.355533 -0.5898,-0.633897 -0.08268,-0.04134 -0.126779,-0.06063 -0.66697,-0.325217 -0.890212,-0.587044 -0.220486,-0.264583 -0.220486,-0.644922 0,-0.493337 0.333485,-0.799261 0.336241,-0.305924 0.879188,-0.305924 0.446484,0 0.746896,0.173632 0.300412,0.170877 0.416167,0.493338 l -0.51263,0.264583 q -0.121267,-0.190169 -0.267339,-0.278364 -0.143316,-0.08819 -0.330729,-0.08819 -0.264583,0 -0.421679,0.137804 -0.154341,0.137803 -0.154341,0.369313 0,0.363802 0.683507,0.677995 0.05237,0.0248 0.08268,0.03858 0.598068,0.275607 0.82131,0.54019 0.223242,0.261827 0.223242,0.655946 0,0.573263 -0.361045,0.912261 -0.361046,0.336241 -0.975651,0.336241 -0.515386,0 -0.846115,-0.237023 -0.327972,-0.237022 -0.429947,-0.677994 z"
         style="font-family:'Futura Md BT';-inkscape-font-specification:'Futura Md BT';fill:#0000ff"
         id="path17681" />
      <path
         d="m 79.925148,43.933482 v 3.478166 h -0.655946 v -3.478166 h -1.072113 v -0.556727 h 2.794659 v 0.556727 z"
         style="font-family:'Futura Md BT';-inkscape-font-specification:'Futura Md BT';fill:#0000ff"
         id="path17683" />
      <path
         d="m 81.934326,45.826905 h 1.124478 l -0.413411,-0.920529 q -0.03583,-0.08819 -0.07441,-0.201193 -0.03858,-0.115755 -0.07717,-0.256315 -0.03307,0.132291 -0.07166,0.248047 -0.03583,0.112999 -0.07441,0.209461 z m 1.813497,1.584743 -0.457509,-1.03904 h -1.598523 l -0.468532,1.03904 H 80.53424 l 1.954057,-4.194745 1.9513,4.194745 z"
         style="font-family:'Futura Md BT';-inkscape-font-specification:'Futura Md BT';fill:#0000ff"
         id="path17685" />
      <path
         d="m 86.955894,45.344592 h 1.598523 q 0,0.04134 0.0028,0.115755 0.0083,0.195681 0.0083,0.264583 0,0.851627 -0.487825,1.322916 -0.487825,0.471289 -1.375281,0.471289 -0.496093,0 -0.8847,-0.146072 -0.388606,-0.146072 -0.68075,-0.440972 -0.286632,-0.292144 -0.440972,-0.686263 -0.151584,-0.394118 -0.151584,-0.843358 0,-0.457509 0.15434,-0.843359 0.157096,-0.385851 0.46302,-0.68075 0.2949,-0.289388 0.691775,-0.440972 0.396875,-0.151584 0.848871,-0.151584 0.476801,0 0.851627,0.173632 0.377582,0.173633 0.672482,0.531923 l -0.479557,0.361045 q -0.203949,-0.237022 -0.460264,-0.352777 -0.256315,-0.115755 -0.573264,-0.115755 -0.655945,0 -1.072113,0.421679 -0.413411,0.418923 -0.413411,1.091405 0,0.683507 0.413411,1.110698 0.416168,0.424436 1.077625,0.424436 0.56224,0 0.8847,-0.261827 0.322461,-0.261827 0.322461,-0.713823 v -0.05788 h -0.970138 z"
         style="font-family:'Futura Md BT';-inkscape-font-specification:'Futura Md BT';fill:#0000ff"
         id="path17687" />
      <path
         d="m 89.25446,47.411648 v -4.034893 h 2.251712 v 0.556727 h -1.595767 v 1.011479 h 1.595767 v 0.57602 h -1.595767 v 1.303623 h 1.595767 v 0.587044 z"
         style="font-family:'Futura Md BT';-inkscape-font-specification:'Futura Md BT';fill:#0000ff"
         id="path17689" />
    </g>
    <g
       aria-label="LOCK"
       id="text12062-8-5-5-1-6-0-3"
       style="font-size:5.64444px;line-height:1.25;display:inline;stroke-width:0.264583;fill:#0000ff">
      <path
         d="m 45.996914,38.654415 v -4.034893 h 0.655946 v 3.447849 h 1.466231 v 0.587044 z"
         style="font-family:'Futura Md BT';-inkscape-font-specification:'Futura Md BT';fill:#0000ff"
         id="path17661" />
      <path
         d="m 51.903181,36.645237 q 0,-0.305924 -0.112999,-0.581532 -0.110243,-0.275607 -0.319704,-0.490581 -0.20395,-0.212218 -0.474045,-0.325217 -0.267339,-0.115755 -0.564995,-0.115755 -0.297656,0 -0.567752,0.112999 -0.267339,0.112999 -0.476801,0.327973 -0.209461,0.212218 -0.319704,0.487825 -0.110243,0.275608 -0.110243,0.584288 0,0.305924 0.110243,0.578776 0.110243,0.272851 0.319704,0.487825 0.209462,0.214974 0.476801,0.327973 0.26734,0.112999 0.567752,0.112999 0.2949,0 0.559483,-0.112999 0.267339,-0.112999 0.479557,-0.327973 0.209461,-0.214974 0.319704,-0.487825 0.112999,-0.275608 0.112999,-0.578776 z m 0.683507,0 q 0,0.429948 -0.162609,0.813042 -0.159852,0.383094 -0.468532,0.683506 -0.311437,0.300412 -0.702799,0.460265 -0.391363,0.159852 -0.82131,0.159852 -0.43546,0 -0.832335,-0.159852 -0.394118,-0.162609 -0.697287,-0.460265 -0.30868,-0.300412 -0.468532,-0.68075 -0.159853,-0.380338 -0.159853,-0.815798 0,-0.432704 0.159853,-0.815798 0.159852,-0.383094 0.468532,-0.686263 0.308681,-0.300412 0.700043,-0.457508 0.391363,-0.157096 0.829579,-0.157096 0.435459,0 0.824066,0.157096 0.391362,0.157096 0.700043,0.457508 0.30868,0.305925 0.468532,0.691775 0.162609,0.383094 0.162609,0.810286 z"
         style="font-family:'Futura Md BT';-inkscape-font-specification:'Futura Md BT';fill:#0000ff"
         id="path17663" />
      <path
         d="m 56.577484,35.600685 q -0.278364,-0.237023 -0.5898,-0.355534 -0.308681,-0.118511 -0.650434,-0.118511 -0.661458,0 -1.077625,0.424435 -0.413411,0.424436 -0.413411,1.099674 0,0.65319 0.402387,1.077625 0.405143,0.424436 1.019747,0.424436 0.35829,0 0.680751,-0.12678 0.325216,-0.126779 0.622872,-0.383094 v 0.741384 q -0.264583,0.190169 -0.576019,0.283876 -0.311437,0.09371 -0.675238,0.09371 -0.463021,0 -0.857139,-0.151584 -0.391363,-0.151584 -0.689019,-0.446484 -0.2949,-0.289388 -0.454752,-0.68075 -0.157097,-0.394119 -0.157097,-0.837847 0,-0.443728 0.157097,-0.832334 0.159852,-0.391363 0.460264,-0.686263 0.300412,-0.297656 0.689019,-0.44924 0.388606,-0.15434 0.840602,-0.15434 0.355534,0 0.677995,0.104731 0.32246,0.101974 0.625629,0.311436 z"
         style="font-family:'Futura Md BT';-inkscape-font-specification:'Futura Md BT';fill:#0000ff"
         id="path17665" />
      <path
         d="m 57.390525,38.654415 v -4.034893 h 0.655946 v 1.670181 l 1.449695,-1.670181 h 0.802017 l -1.598523,1.794205 1.788693,2.240688 h -0.846115 l -1.595767,-2.061543 v 2.061543 z"
         style="font-family:'Futura Md BT';-inkscape-font-specification:'Futura Md BT';fill:#0000ff"
         id="path17667" />
    </g>
    <rect
       style="display:inline;fill:none;fill-opacity:1;stroke:#ff0000;stroke-width:0.5;stroke-miterlimit:4;stroke-dasharray:none;stroke-opacity:1"
       id="rect137-2-8-0-9-2-7-5"
       width="22"
       height="26"
       x="72.66188"
       y="48.629513"
       rx="1.2121212"
       ry="1.4545455" />
    <path
       style="fill:none;stroke:#ff0000;stroke-width:0.5;stroke-linecap:butt;stroke-linejoin:miter;stroke-miterlimit:4;stroke-dasharray:none;stroke-opacity:1"
       d="m 63.213923,60.738657 h 9.326563"
       id="path13675" />
    <rect
       style="fill:none;stroke:#999999;stroke-width:0.473305"
       id="rect13972"
       width="76.199997"
       height="88.900002"
       x="25.395212"
       y="15.164001"
       rx="1"
       ry="1" />
    <path
       id="rect13972-7"
       style="fill:none;stroke:#000000;stroke-width:1.78887"
       d="m 99.761719,57.3125 c -2.093859,0 -3.779297,1.685439 -3.779297,3.779297 v 7.179687 h 29.507808 c 7.32851,0 13.22852,5.900012 13.22852,13.228516 0,7.328504 -5.90001,13.228516 -13.22852,13.228516 H 95.982422 V 356.27148 h 29.507808 c 7.32851,0 13.22852,5.90002 13.22852,13.22852 0,7.3285 -5.90001,13.22852 -13.22852,13.22852 H 95.982422 v 6.80468 c 0,2.09386 1.685438,3.7793 3.779297,3.7793 H 380.20312 c 2.09386,0 3.7793,-1.68544 3.7793,-3.7793 v -6.80468 h -29.50781 c -7.3285,0 -13.22852,-5.90002 -13.22852,-13.22852 0,-7.3285 5.90002,-13.22852 13.22852,-13.22852 h 29.50781 V 94.728516 h -29.50781 c -7.3285,0 -13.22852,-5.900012 -13.22852,-13.228516 0,-7.328504 5.90002,-13.228516 13.22852,-13.228516 h 29.50781 v -7.179687 c 0,-2.093858 -1.68544,-3.779297 -3.7793,-3.779297 z"
       transform="scale(0.26458333)" />
    <circle
       style="fill:none;stroke:#999999;stroke-width:0.499999"
       id="path16896"
       cx="93.962555"
       cy="21.513992"
       r="2.8" />
    <circle
       style="fill:none;stroke:#999999;stroke-width:0.499999"
       id="path16896-4"
       cx="93.962555"
       cy="97.763542"
       r="2.8" />
    <circle
       style="fill:none;stroke:#999999;stroke-width:0.499999"
       id="path16896-4-1"
       cx="33.051434"
       cy="97.714188"
       r="2.8" />
    <circle
       style="fill:none;stroke:#999999;stroke-width:0.499999"
       id="path16896-4-0"
       cx="33.051434"
       cy="21.514181"
       r="2.8" />
  </g>
</svg>
