0
SECTION
2
HEADER
9
$INSUNITS
70
4
9
$ACADVER
1
AC1014
9
$HANDSEED
5
FFFF
0
ENDSEC
0
SECTION
2
TABLES
0
TABLE
2
VPORT
5
8
100
AcDbSymbolTable
0
ENDTAB
0
TABLE
2
LTYPE
5
5
100
AcDbSymbolTable
0
LTYPE
5
14
100
AcDbSymbolTableRecord
100
AcDbLinetypeTableRecord
2
BYBLOCK
70
0
0
LTYPE
5
15
100
AcDbSymbolTableRecord
100
AcDbLinetypeTableRecord
2
BYLAYER
70
0
0
ENDTAB
0
TABLE
2
LAYER
5
2
100
AcDbSymbolTable
70
2
0
LAYER
5
50
100
AcDbSymbolTableRecord
100
AcDbLayerTableRecord
2
0
70
0
6
CONTINUOUS
0
ENDTAB
0
TABLE
2
STYLE
5
3
100
AcDbSymbolTable
70
1
0
STYLE
5
11
100
AcDbSymbolTableRecord
100
AcDbTextStyleTableRecord
2
STANDARD
70
0
0
ENDTAB
0
TABLE
2
VIEW
5
6
100
AcDbSymbolTable
70
0
0
ENDTAB
0
TABLE
2
UCS
5
7
100
AcDbSymbolTable
70
0
0
ENDTAB
0
TABLE
2
APPID
5
9
100
AcDbSymbolTable
70
2
0
APPID
5
12
100
AcDbSymbolTableRecord
100
AcDbRegAppTableRecord
2
ACAD
70
0
0
ENDTAB
0
TABLE
2
DIMSTYLE
5
A
100
AcDbSymbolTable
70
1
0
ENDTAB
0
TABLE
2
BLOCK_RECORD
5
1
100
AcDbSymbolTable
70
1
0
BLOCK_RECORD
5
1F
100
AcDbSymbolTableRecord
100
AcDbBlockTableRecord
2
*MODEL_SPACE
0
BLOCK_RECORD
5
1B
100
AcDbSymbolTableRecord
100
AcDbBlockTableRecord
2
*PAPER_SPACE
0
ENDTAB
0
ENDSEC
0
SECTION
2
BLOCKS
0
BLOCK
5
20
100
AcDbEntity
100
AcDbBlockBegin
2
*MODEL_SPACE
0
ENDBLK
5
21
100
AcDbEntity
100
AcDbBlockEnd
0
BLOCK
5
1C
100
AcDbEntity
100
AcDbBlockBegin
2
*PAPER_SPACE
0
ENDBLK
5
1D
100
AcDbEntity
100
AcDbBlockEnd
0
ENDSEC
0
SECTION
2
ENTITIES
0
LINE
5
100
100
AcDbEntity
8
0
100
AcDbLine
10
-267.50000000000006
20
59.999999999999893
30
0
11
-267.50000000000006
21
49.799999999999891
31
0
0
LINE
5
101
100
AcDbEntity
8
0
100
AcDbLine
10
-267.50000000000006
20
49.799999999999891
30
0
11
-264.5
21
49.799999999999905
31
0
0
LINE
5
102
100
AcDbEntity
8
0
100
AcDbLine
10
-264.5
20
49.799999999999905
30
0
11
-264.50000000000006
21
39.999999999999901
31
0
0
LINE
5
103
100
AcDbEntity
8
0
100
AcDbLine
10
-264.50000000000006
20
39.999999999999901
30
0
11
-267.50000000000006
21
39.999999999999901
31
0
0
LINE
5
104
100
AcDbEntity
8
0
100
AcDbLine
10
-267.50000000000006
20
39.999999999999901
30
0
11
-267.50000000000006
21
29.799999999999898
31
0
0
LINE
5
105
100
AcDbEntity
8
0
100
AcDbLine
10
-267.50000000000006
20
29.799999999999898
30
0
11
-264.5
21
29.799999999999915
31
0
0
LINE
5
106
100
AcDbEntity
8
0
100
AcDbLine
10
-264.5
20
29.799999999999915
30
0
11
-264.5
21
19.999999999999915
31
0
0
LINE
5
107
100
AcDbEntity
8
0
100
AcDbLine
10
-264.5
20
19.999999999999915
30
0
11
-267.50000000000006
21
19.999999999999911
31
0
0
LINE
5
108
100
AcDbEntity
8
0
100
AcDbLine
10
-267.50000000000006
20
19.999999999999911
30
0
11
-267.50000000000006
21
9.7999999999999066
31
0
0
LINE
5
109
100
AcDbEntity
8
0
100
AcDbLine
10
-267.50000000000006
20
9.7999999999999066
30
0
11
-264.5
21
9.7999999999999243
31
0
0
LINE
5
110
100
AcDbEntity
8
0
100
AcDbLine
10
-264.5
20
9.7999999999999243
30
0
11
-264.5
21
-7.5495165674510645e-14
31
0
0
LINE
5
111
100
AcDbEntity
8
0
100
AcDbLine
10
-264.5
20
-7.5495165674510645e-14
30
0
11
0
21
0
31
0
0
LINE
5
112
100
AcDbEntity
8
0
100
AcDbLine
10
-267.50000000000006
20
59.999999999999893
30
0
11
-264.5
21
59.999999999999893
31
0
0
LINE
5
113
100
AcDbEntity
8
0
100
AcDbLine
10
-264.5
20
59.999999999999893
30
0
11
-264.5
21
69.799999999999898
31
0
0
LINE
5
114
100
AcDbEntity
8
0
100
AcDbLine
10
-264.5
20
69.799999999999898
30
0
11
-8.8817841970012523e-15
21
69.799999999999599
31
0
0
LINE
5
115
100
AcDbEntity
8
0
100
AcDbLine
10
0
20
159.83696186658386
30
0
11
-3.5527136788005009e-14
21
-125.86393067664923
31
0
0
LINE
5
116
100
AcDbEntity
8
0
100
AcDbLine
10
264.5
20
19.999999999999851
30
0
11
267.5
21
19.99999999999984
31
0
0
LINE
5
117
100
AcDbEntity
8
0
100
AcDbLine
10
267.5
20
19.99999999999984
30
0
11
267.5
21
9.7999999999998408
31
0
0
LINE
5
118
100
AcDbEntity
8
0
100
AcDbLine
10
267.50000000000006
20
29.79999999999983
30
0
11
264.5
21
29.799999999999848
31
0
0
LINE
5
119
100
AcDbEntity
8
0
100
AcDbLine
10
264.5
20
29.799999999999848
30
0
11
264.5
21
19.999999999999851
31
0
0
LINE
5
120
100
AcDbEntity
8
0
100
AcDbLine
10
267.50000000000006
20
39.999999999999829
30
0
11
267.50000000000006
21
29.79999999999983
31
0
0
LINE
5
121
100
AcDbEntity
8
0
100
AcDbLine
10
264.5
20
9.7999999999998586
30
0
11
264.5
21
-1.3766765505351941e-13
31
0
0
LINE
5
122
100
AcDbEntity
8
0
100
AcDbLine
10
264.5
20
49.799999999999834
30
0
11
264.5
21
39.999999999999837
31
0
0
LINE
5
123
100
AcDbEntity
8
0
100
AcDbLine
10
264.5
20
-1.3766765505351941e-13
30
0
11
-3.5527136788005009e-14
21
0
31
0
0
LINE
5
124
100
AcDbEntity
8
0
100
AcDbLine
10
264.5
20
59.999999999999822
30
0
11
264.5
21
69.799999999999827
31
0
0
LINE
5
125
100
AcDbEntity
8
0
100
AcDbLine
10
267.5
20
59.999999999999822
30
0
11
264.5
21
59.999999999999822
31
0
0
LINE
5
126
100
AcDbEntity
8
0
100
AcDbLine
10
264.5
20
39.999999999999837
30
0
11
267.50000000000006
21
39.999999999999829
31
0
0
LINE
5
127
100
AcDbEntity
8
0
100
AcDbLine
10
264.5
20
69.799999999999827
30
0
11
-8.8817841970012523e-15
21
69.799999999999599
31
0
0
LINE
5
128
100
AcDbEntity
8
0
100
AcDbLine
10
267.5
20
9.7999999999998408
30
0
11
264.5
21
9.7999999999998586
31
0
0
LINE
5
129
100
AcDbEntity
8
0
100
AcDbLine
10
267.5
20
49.79999999999982
30
0
11
264.5
21
49.799999999999834
31
0
0
LINE
5
130
100
AcDbEntity
8
0
100
AcDbLine
10
267.5
20
59.999999999999822
30
0
11
267.5
21
49.79999999999982
31
0
0
ENDSEC
0
SECTION
2
OBJECTS
0
DICTIONARY
5
C
100
AcDbDictionary
3
ACAD_GROUP
350
D
3
ACAD_MLINESTYLE
350
17
0
DICTIONARY
5
D
100
AcDbDictionary
0
DICTIONARY
5
1A
330
C
100
AcDbDictionary
0
DICTIONARY
5
17
100
AcDbDictionary
0
ENDSEC
0
EOF
