<?xml version="1.0" encoding="UTF-8" standalone="no"?>
<!-- Created with Inkscape (http://www.inkscape.org/) -->

<svg
   width="600mm"
   height="300mm"
   viewBox="0 0 600 300"
   version="1.1"
   id="svg5"
   xml:space="preserve"
   inkscape:version="1.2.1 (9c6d41e410, 2022-07-14)"
   sodipodi:docname="panel_sas.svg"
   xmlns:inkscape="http://www.inkscape.org/namespaces/inkscape"
   xmlns:sodipodi="http://sodipodi.sourceforge.net/DTD/sodipodi-0.dtd"
   xmlns="http://www.w3.org/2000/svg"
   xmlns:svg="http://www.w3.org/2000/svg"><sodipodi:namedview
     id="namedview7"
     pagecolor="#ffffff"
     bordercolor="#666666"
     borderopacity="1.0"
     inkscape:showpageshadow="2"
     inkscape:pageopacity="0.0"
     inkscape:pagecheckerboard="0"
     inkscape:deskcolor="#d1d1d1"
     inkscape:document-units="mm"
     showgrid="false"
     inkscape:zoom="1.9099422"
     inkscape:cx="414.67223"
     inkscape:cy="321.99927"
     inkscape:window-width="2560"
     inkscape:window-height="1369"
     inkscape:window-x="-8"
     inkscape:window-y="-8"
     inkscape:window-maximized="1"
     inkscape:current-layer="layer1" /><defs
     id="defs2"><marker
       id="DistanceX"
       orient="auto"
       refX="0"
       refY="0"
       style="overflow:visible"><path
         d="M 3,-3 -3,3 M 0,-5 V 5"
         style="stroke:#000000;stroke-width:0.5"
         id="path1051" /></marker><pattern
       id="Hatch"
       patternUnits="userSpaceOnUse"
       width="8"
       height="8"
       x="0"
       y="0"><path
         d="M8 4 l-4,4"
         stroke="#000000"
         stroke-width="0.25"
         linecap="square"
         id="path1054" /><path
         d="M6 2 l-4,4"
         stroke="#000000"
         stroke-width="0.25"
         linecap="square"
         id="path1056" /><path
         d="M4 0 l-4,4"
         stroke="#000000"
         stroke-width="0.25"
         linecap="square"
         id="path1058" /></pattern><symbol
       id="*MODEL_SPACE" /><symbol
       id="*PAPER_SPACE" /><marker
       id="DistanceX-5"
       orient="auto"
       refX="0.0"
       refY="0.0"
       style="overflow:visible"><path
         d="M 3,-3 L -3,3 M 0,-5 L  0,5"
         style="stroke:#000000; stroke-width:0.5"
         id="path4884" /></marker><pattern
       id="Hatch-6"
       patternUnits="userSpaceOnUse"
       width="8"
       height="8"
       x="0"
       y="0"><path
         d="M8 4 l-4,4"
         stroke="#000000"
         stroke-width="0.25"
         linecap="square"
         id="path4887" /><path
         d="M6 2 l-4,4"
         stroke="#000000"
         stroke-width="0.25"
         linecap="square"
         id="path4889" /><path
         d="M4 0 l-4,4"
         stroke="#000000"
         stroke-width="0.25"
         linecap="square"
         id="path4891" /></pattern><symbol
       id="*MODEL_SPACE-0" /><symbol
       id="*PAPER_SPACE-1" /><marker
       id="DistanceX-8"
       orient="auto"
       refX="0.0"
       refY="0.0"
       style="overflow:visible"><path
         d="M 3,-3 L -3,3 M 0,-5 L  0,5"
         style="stroke:#000000; stroke-width:0.5"
         id="path7158" /></marker><pattern
       id="Hatch-4"
       patternUnits="userSpaceOnUse"
       width="8"
       height="8"
       x="0"
       y="0"><path
         d="M8 4 l-4,4"
         stroke="#000000"
         stroke-width="0.25"
         linecap="square"
         id="path7161" /><path
         d="M6 2 l-4,4"
         stroke="#000000"
         stroke-width="0.25"
         linecap="square"
         id="path7163" /><path
         d="M4 0 l-4,4"
         stroke="#000000"
         stroke-width="0.25"
         linecap="square"
         id="path7165" /></pattern><symbol
       id="*MODEL_SPACE-2" /><symbol
       id="*PAPER_SPACE-3" /></defs><g
     inkscape:label="Layer 1"
     inkscape:groupmode="layer"
     id="layer1"><path
       id="path1303"
       style="fill:none;stroke:#ff0000;stroke-width:0.01;stroke-dasharray:none;stroke-opacity:1"
       d="m 79.653026,136.73624 -29.499991,-5e-4 -29.499991,5.7e-4 c -1.104574,5e-4 -2.000004,-0.89492 -1.999993,-1.99887 v -2.00013 c -2.1e-5,-1.10507 -0.89545,-2.00049 -1.999993,-2.00012 h -1.999992 c -1.104604,-3.7e-4 -2.000036,-0.89581 -1.999993,-2.00013 l 3.7e-5,-56.25016 -3.7e-5,-56.250117 c -3.7e-5,-1.104535 0.895393,-1.999965 1.999992,-1.999992 h 1.999993 c 1.104548,2.7e-5 1.999978,-0.895404 1.999993,-1.999994 v -1.999993 c -1.5e-5,-1.1045574 0.895416,-1.9999874 1.999993,-1.999992 l 29.499991,-5.3e-6 29.499991,5.3e-6 c 1.104577,4.6e-6 2.000008,0.8954346 1.999993,1.999992 v 1.999993 c 1.5e-5,1.10459 0.895445,2.000021 1.999992,1.999994 h 1.999993 c 1.1046,2.7e-5 2.00003,0.895457 1.999993,1.999992 l -3.7e-5,56.250117 3.7e-5,56.25016 c 4.3e-5,1.10432 -0.895389,1.99976 -1.999993,2.00014 h -1.999993 c -1.104542,-3.8e-4 -1.999971,0.89504 -1.999992,2.00012 v 2.00013 c 1.1e-5,1.10394 -0.895419,1.99936 -1.999993,1.99879 z M 35.653035,85.236826 c -0.0016,-4.417176 -3.582826,-7.997168 -7.999999,-7.997168 -4.417174,0 -7.998438,3.579992 -8,7.997168 0.0016,4.417176 3.582826,7.997168 8,7.997168 4.417173,0 7.998437,-3.579992 7.999999,-7.997168 z m 0,-39.999999 c -0.0016,-4.417176 -3.582826,-7.997168 -7.999999,-7.997168 -4.417174,0 -7.998438,3.579992 -8,7.997168 0.0016,4.417176 3.582826,7.997168 8,7.997168 4.417173,0 7.998437,-3.579992 7.999999,-7.997168 z M 15.652956,127.43557 v -9.59909 h 25.500092 v 9.59909 z M 41.153048,114.83611 H 15.652956 v -9.59909 h 25.500092 z m 41.500034,-8.79967 c -5.1e-5,-0.16531 -0.134365,-0.29962 -0.300019,-0.29948 H 64.953034 c -0.165681,-1.4e-4 -0.299994,0.13417 -0.299993,0.29948 v 17.40082 c -1.2e-5,0.16524 0.134305,0.29956 0.299993,0.2995 h 17.400029 c 0.165662,6e-5 0.299979,-0.13426 0.300019,-0.2995 z m -38.32004,0 c -2e-6,-0.16531 0.134311,-0.29962 0.299992,-0.29948 h 17.400003 c 0.16568,-1.4e-4 0.299993,0.13417 0.299992,0.29948 v 17.40082 c 1.2e-5,0.16524 -0.134305,0.29956 -0.299992,0.2995 H 44.633034 c -0.165688,6e-5 -0.300005,-0.13426 -0.299992,-0.2995 z m -10e-7,-20.320004 c 2e-6,-0.165309 0.134314,-0.299614 0.299993,-0.299482 h 17.400003 c 0.165678,-1.32e-4 0.29999,0.134173 0.299992,0.299482 v 17.400824 c 1.2e-5,0.16524 -0.134305,0.29956 -0.299992,0.2995 H 44.633034 c -0.165688,6e-5 -0.300005,-0.13426 -0.299993,-0.2995 z m 38.320041,0 c -5.4e-5,-0.165309 -0.134367,-0.299615 -0.300019,-0.299482 H 64.953034 c -0.165679,-1.32e-4 -0.299991,0.134173 -0.299993,0.299482 v 17.400824 c -1.2e-5,0.16524 0.134305,0.29956 0.299993,0.2995 h 17.400029 c 0.165662,6e-5 0.299979,-0.13426 0.300019,-0.2995 z M 44.633034,83.096757 h 17.400003 c 0.165688,6.6e-5 0.300004,-0.134255 0.299992,-0.299495 V 65.396437 c -3e-6,-0.165309 -0.134315,-0.299614 -0.299992,-0.299482 H 44.633034 c -0.165678,-1.32e-4 -0.29999,0.134173 -0.299993,0.299482 v 17.400825 c -1.2e-5,0.16524 0.134304,0.299561 0.299993,0.299495 z m 38.020048,-17.70032 c -5.5e-5,-0.16531 -0.134367,-0.299615 -0.300019,-0.299482 H 64.953034 c -0.165678,-1.32e-4 -0.29999,0.134173 -0.299993,0.299482 v 17.400825 c -1.2e-5,0.16524 0.134304,0.299561 0.299993,0.299495 h 17.400029 c 0.165662,6.7e-5 0.299979,-0.134255 0.300019,-0.299495 z M 44.633034,62.776758 h 17.400003 c 0.165688,6.6e-5 0.300004,-0.134255 0.299992,-0.299495 V 45.076437 c -3e-6,-0.165309 -0.134315,-0.299614 -0.299992,-0.299482 l -17.400003,0 c -0.165678,-1.32e-4 -0.29999,0.134173 -0.299993,0.299482 v 17.400826 c -1.2e-5,0.16524 0.134304,0.299561 0.299993,0.299495 z m 37.720029,0 H 64.953034 c -0.165689,6.6e-5 -0.300005,-0.134255 -0.299993,-0.299495 V 45.076437 c 3e-6,-0.165309 0.134315,-0.299614 0.299993,-0.299482 h 17.400029 c 0.165652,-1.33e-4 0.299964,0.134172 0.300019,0.299482 v 17.400826 c -4e-5,0.16524 -0.134357,0.299562 -0.300019,0.299495 z m 0,-20.32 H 64.953034 c -0.165689,6.6e-5 -0.300005,-0.134255 -0.299993,-0.299495 V 24.756839 c -5e-6,-0.165708 0.134309,-0.300021 0.299993,-0.300018 h 17.400029 c 0.165657,-4e-6 0.299972,0.13431 0.300019,0.300018 v 17.400424 c -4e-5,0.16524 -0.134357,0.299562 -0.300019,0.299495 z M 44.333042,24.756839 c -6e-6,-0.165708 0.134308,-0.300021 0.299992,-0.300018 h 17.400003 c 0.165683,-3e-6 0.299997,0.13431 0.299992,0.300018 v 17.400424 c 1.2e-5,0.16524 -0.134304,0.299561 -0.299992,0.299495 H 44.633034 c -0.165689,6.6e-5 -0.300005,-0.134255 -0.299992,-0.299495 z"
       sodipodi:nodetypes="ccccccccccccccccccccccccccccccscsccscsccccccccccccccccccccccccccccccccccccccccccccccccccccccccccccccccccccccccccccccccccccccccccccccccccccc" /><g
       id="g8099"
       style="stroke:#ff0000;stroke-opacity:1;stroke-width:0.01;stroke-dasharray:none"><path
         d="m 90.670078,8.3794671 h 73.000002 a 1.0000001,1.0000001 0 0 1 1,1.0000006 V 135.87946 a 1.0000001,1.0000001 0 0 1 -1,1 H 90.670078 a 1.0000001,1.0000001 0 0 1 -0.999998,-1 V 9.3794677 a 1.0000001,1.0000001 0 0 1 0.999998,-1.0000006 z"
         style="fill:none;stroke:#ff0000;stroke-width:0.01;stroke-dasharray:none;stroke-opacity:1"
         id="path4898" /><path
         d="m 121.65008,24.599468 h 17.4 a 0.29999993,0.29999993 0 0 1 0.3,0.299997 v 17.399998 a 0.29999993,0.29999993 0 0 1 -0.3,0.300011 h -17.4 a 0.29999993,0.29999993 0 0 1 -0.3,-0.300011 V 24.899465 a 0.29999993,0.29999993 0 0 1 0.3,-0.299997 z"
         style="fill:none;stroke:#ff0000;stroke-width:0.01;stroke-dasharray:none;stroke-opacity:1"
         id="path4900" /><path
         d="m 110.67008,45.379477 a 6,6 0 0 0 -12,0 6,6 0 0 0 12,0 z"
         style="fill:none;stroke:#ff0000;stroke-width:0.01;stroke-dasharray:none;stroke-opacity:1"
         id="path4902" /><path
         d="m 110.67008,85.379476 a 6,6 0 0 0 -12,0 6,6 0 0 0 12,0 z"
         style="fill:none;stroke:#ff0000;stroke-width:0.01;stroke-dasharray:none;stroke-opacity:1"
         id="path4904" /><path
         d="m 94.270078,11.379466 a 1.6,1.6 0 0 0 -3.199998,0 1.6,1.6 0 0 0 3.199998,0 z"
         style="fill:none;stroke:#ff0000;stroke-width:0.01;stroke-dasharray:none;stroke-opacity:1"
         id="path4906" /><path
         d="m 163.27008,11.379466 a 1.6,1.6 0 0 0 -3.2,0 1.6,1.6 0 0 0 3.2,0 z"
         style="fill:none;stroke:#ff0000;stroke-width:0.01;stroke-dasharray:none;stroke-opacity:1"
         id="path4912" /><path
         d="m 94.270078,133.87945 a 1.6,1.6 0 0 0 -3.199998,0 1.6,1.6 0 0 0 3.199998,0 z"
         style="fill:none;stroke:#ff0000;stroke-width:0.01;stroke-dasharray:none;stroke-opacity:1"
         id="path4916" /><path
         d="m 163.27008,133.87945 a 1.6,1.6 0 0 0 -3.2,0 1.6,1.6 0 0 0 3.2,0 z"
         style="fill:none;stroke:#ff0000;stroke-width:0.01;stroke-dasharray:none;stroke-opacity:1"
         id="path4918" /><path
         d="m 92.670079,105.37946 h 25.500001 v 9.60001 H 92.670079 Z"
         style="fill:none;stroke:#ff0000;stroke-width:0.01;stroke-dasharray:none;stroke-opacity:1"
         id="path4920" /><path
         d="M 118.17008,127.57946 H 92.670079 v -9.59998 h 25.500001 z"
         style="fill:none;stroke:#ff0000;stroke-width:0.01;stroke-dasharray:none;stroke-opacity:1"
         id="path4922" /><path
         d="m 159.67008,24.899465 a 0.29999993,0.29999993 0 0 0 -0.3,-0.299997 h -17.4 a 0.29999993,0.29999993 0 0 0 -0.3,0.299997 v 17.399998 a 0.29999993,0.29999993 0 0 0 0.3,0.300011 h 17.4 a 0.29999993,0.29999993 0 0 0 0.3,-0.300011 z"
         style="fill:none;stroke:#ff0000;stroke-width:0.01;stroke-dasharray:none;stroke-opacity:1"
         id="path4928" /><path
         d="m 139.35008,45.219457 a 0.29999993,0.29999993 0 0 0 -0.3,-0.299984 h -17.4 a 0.29999993,0.29999993 0 0 0 -0.3,0.299984 v 17.400005 a 0.29999993,0.29999993 0 0 0 0.3,0.300012 h 17.4 a 0.29999993,0.29999993 0 0 0 0.3,-0.300012 z"
         style="fill:none;stroke:#ff0000;stroke-width:0.01;stroke-dasharray:none;stroke-opacity:1"
         id="path4934" /><path
         d="m 159.67008,45.219457 a 0.29999993,0.29999993 0 0 0 -0.3,-0.299984 h -17.4 a 0.29999993,0.29999993 0 0 0 -0.3,0.299984 v 17.400005 a 0.29999993,0.29999993 0 0 0 0.3,0.300012 h 17.4 a 0.29999993,0.29999993 0 0 0 0.3,-0.300012 z"
         style="fill:none;stroke:#ff0000;stroke-width:0.01;stroke-dasharray:none;stroke-opacity:1"
         id="path4940" /><path
         d="m 139.35008,65.539457 a 0.29999993,0.29999993 0 0 0 -0.3,-0.299985 h -17.4 a 0.29999993,0.29999993 0 0 0 -0.3,0.299985 v 17.400005 a 0.29999993,0.29999993 0 0 0 0.3,0.300011 h 17.4 a 0.29999993,0.29999993 0 0 0 0.3,-0.300011 z"
         style="fill:none;stroke:#ff0000;stroke-width:0.01;stroke-dasharray:none;stroke-opacity:1"
         id="path4946" /><path
         d="m 159.67008,65.539457 a 0.29999993,0.29999993 0 0 0 -0.3,-0.299985 h -17.4 a 0.29999993,0.29999993 0 0 0 -0.3,0.299985 v 17.400005 a 0.29999993,0.29999993 0 0 0 0.3,0.300011 h 17.4 a 0.29999993,0.29999993 0 0 0 0.3,-0.300011 z"
         style="fill:none;stroke:#ff0000;stroke-width:0.01;stroke-dasharray:none;stroke-opacity:1"
         id="path4952" /><path
         d="m 139.35008,85.859457 a 0.29999993,0.29999993 0 0 0 -0.3,-0.299985 h -17.4 a 0.29999993,0.29999993 0 0 0 -0.3,0.299985 v 17.400003 a 0.29999993,0.29999993 0 0 0 0.3,0.30001 h 17.4 a 0.29999993,0.29999993 0 0 0 0.3,-0.30001 z"
         style="fill:none;stroke:#ff0000;stroke-width:0.01;stroke-dasharray:none;stroke-opacity:1"
         id="path4958" /><path
         d="m 159.67008,85.859457 a 0.29999993,0.29999993 0 0 0 -0.3,-0.299985 h -17.4 a 0.29999993,0.29999993 0 0 0 -0.3,0.299985 v 17.400003 a 0.29999993,0.29999993 0 0 0 0.3,0.30001 h 17.4 a 0.29999993,0.29999993 0 0 0 0.3,-0.30001 z"
         style="fill:none;stroke:#ff0000;stroke-width:0.01;stroke-dasharray:none;stroke-opacity:1"
         id="path4964" /><path
         d="m 139.35008,106.17946 a 0.29999993,0.29999993 0 0 0 -0.3,-0.29999 h -17.4 a 0.29999993,0.29999993 0 0 0 -0.3,0.29999 v 17.4 a 0.29999993,0.29999993 0 0 0 0.3,0.30001 h 17.4 a 0.29999993,0.29999993 0 0 0 0.3,-0.30001 z"
         style="fill:none;stroke:#ff0000;stroke-width:0.01;stroke-dasharray:none;stroke-opacity:1"
         id="path4970" /><path
         d="m 159.67008,106.17946 a 0.29999993,0.29999993 0 0 0 -0.3,-0.29999 h -17.4 a 0.29999993,0.29999993 0 0 0 -0.3,0.29999 v 17.4 a 0.29999993,0.29999993 0 0 0 0.3,0.30001 h 17.4 a 0.29999993,0.29999993 0 0 0 0.3,-0.30001 z"
         style="fill:none;stroke:#ff0000;stroke-width:0.01;stroke-dasharray:none;stroke-opacity:1"
         id="path4976" /></g><path
       id="path7406"
       style="fill:none;stroke:#ff0000;stroke-width:0.01;stroke-dasharray:none;stroke-opacity:1"
       d="m 238.07782,24.859489 c -5e-5,-0.165708 -0.13437,-0.300021 -0.30002,-0.300018 h -17.40003 c -0.16568,-3e-6 -0.3,0.13431 -0.3,0.300018 v 17.400423 c -10e-6,0.165241 0.13431,0.299562 0.3,0.299496 l 17.40003,0 c 0.16566,6.6e-5 0.29998,-0.134255 0.30002,-0.299496 z m -38.02005,17.699919 h 17.4 c 0.16569,6.6e-5 0.30001,-0.134255 0.29999,-0.299496 V 24.859488 c 1e-5,-0.165707 -0.13431,-0.30002 -0.29999,-0.300017 h -17.4 c -0.16568,-3e-6 -0.3,0.13431 -0.3,0.300018 v 17.400423 c -1e-5,0.165241 0.13431,0.299562 0.3,0.299496 z m 17.4,20.319999 h -17.4 c -0.16569,6.7e-5 -0.30001,-0.134254 -0.3,-0.299495 V 45.179087 c 1e-5,-0.165309 0.13432,-0.299614 0.3,-0.299482 h 17.4 c 0.16568,-1.32e-4 0.29999,0.134173 0.29999,0.299482 v 17.400825 c 2e-5,0.165241 -0.1343,0.299562 -0.29999,0.299495 z m 20.32003,0 h -17.40003 c -0.16569,6.7e-5 -0.30001,-0.134254 -0.3,-0.299494 V 45.179087 c 1e-5,-0.165309 0.13432,-0.299614 0.3,-0.299482 h 17.40003 c 0.16565,-1.32e-4 0.29996,0.134173 0.30002,0.299482 v 17.400826 c -4e-5,0.16524 -0.13436,0.299561 -0.30002,0.299494 z m 0,20.32 h -17.40003 c -0.16569,6.6e-5 -0.30001,-0.134255 -0.3,-0.299495 V 65.499087 c 1e-5,-0.165309 0.13432,-0.299614 0.3,-0.299482 h 17.40003 c 0.16565,-1.32e-4 0.29996,0.134173 0.30002,0.299482 v 17.400825 c -4e-5,0.16524 -0.13436,0.299561 -0.30002,0.299495 z m -20.32003,0 h -17.4 c -0.16569,6.6e-5 -0.30001,-0.134255 -0.3,-0.299495 V 65.499087 c 1e-5,-0.165309 0.13432,-0.299614 0.3,-0.299482 h 17.4 c 0.16568,-1.32e-4 0.29999,0.134173 0.29999,0.299482 v 17.400825 c 2e-5,0.16524 -0.1343,0.299561 -0.29999,0.299495 z m 0.29999,2.61968 c 0,-0.16531 -0.13431,-0.299615 -0.29999,-0.299483 h -17.4 c -0.16568,-1.32e-4 -0.29999,0.134173 -0.3,0.299483 v 17.400823 c -1e-5,0.16524 0.13431,0.29956 0.3,0.29949 h 17.4 c 0.16569,7e-5 0.30001,-0.13425 0.29999,-0.29949 z M 237.7778,103.5194 h -17.40003 c -0.16569,7e-5 -0.30001,-0.13425 -0.3,-0.29949 V 85.819087 c 1e-5,-0.16531 0.13432,-0.299615 0.3,-0.299483 h 17.40003 c 0.16565,-1.32e-4 0.29996,0.134173 0.30002,0.299483 v 17.400823 c -4e-5,0.16524 -0.13436,0.29956 -0.30002,0.29949 z m 0,20.32001 h -17.40003 c -0.16569,6e-5 -0.30001,-0.13426 -0.3,-0.2995 v -17.40082 c 1e-5,-0.16531 0.13432,-0.29962 0.3,-0.29949 h 17.40003 c 0.16565,-1.3e-4 0.29996,0.13418 0.30002,0.29949 v 17.40082 c -4e-5,0.16524 -0.13436,0.29956 -0.30002,0.2995 z m -38.02003,-17.70032 c 1e-5,-0.16531 0.13432,-0.29962 0.3,-0.29949 h 17.4 c 0.16568,-1.3e-4 0.29999,0.13418 0.29999,0.29949 v 17.40082 c 2e-5,0.16524 -0.1343,0.29956 -0.29999,0.2995 h -17.4 c -0.16569,6e-5 -0.30001,-0.13426 -0.3,-0.2995 z m -3.17999,21.39913 h -25.50009 v -9.59909 h 25.50009 z m -25.50009,-12.59946 v -9.59909 h 25.50009 v 9.59909 z m 18.00008,-29.599284 c 0,-3.313711 -2.68629,-5.999997 -6,-5.999997 -3.31371,0 -6,2.686286 -6,5.999997 0,3.313711 2.68629,5.999997 6,5.999997 3.31371,0 6,-2.686286 6,-5.999997 z m 0,-39.999999 c 0,-3.313711 -2.68629,-5.999997 -6,-5.999997 -3.31371,0 -6,2.686286 -6,5.999997 0,3.313711 2.68629,5.999997 6,5.999997 3.31371,0 6,-2.686286 6,-5.999997 z m -14.99999,87.500483 c -2e-5,-1.10507 -0.89544,-2.00049 -1.99999,-2.00011 h -1.99999 c -1.1046,-3.8e-4 -2.00004,-0.89582 -1.99999,-2.00014 l 4e-5,-56.25016 -4e-5,-56.250118 c -4e-5,-1.104534 0.89539,-1.999964 1.99999,-1.999991 l 1.99999,0 c 1.10455,2.7e-5 1.99998,-0.895404 1.99999,-1.999994 v -1.999993 c -1e-5,-1.1045571 0.89542,-1.9999869 2,-1.999992 l 29.49999,-5.3e-6 29.49999,5.3e-6 c 1.10458,5.1e-6 2.00001,0.8954349 1.99999,1.999992 v 1.999993 c 2e-5,1.10459 0.89545,2.000021 1.99999,1.999994 l 2,0 c 1.1046,2.7e-5 2.00003,0.895457 1.99999,1.999992 l -4e-5,56.250117 4e-5,56.25016 c 5e-5,1.10432 -0.89539,1.99976 -1.99999,2.00014 h -2 c -1.10454,-3.8e-4 -1.99996,0.89504 -1.99998,2.00011 v 2.00014 c 0,1.10394 -0.89542,1.99936 -2,1.99879 l -29.49999,-5.7e-4 -29.49999,5.7e-4 c -1.10458,5.7e-4 -2,-0.89485 -2,-1.99879 z"
       sodipodi:nodetypes="ccccccccccccccccccccccccccccccccccccccccccccccccccccccccccccccccccccccccccccccccccccccccccccccccccccssssssssssccccccccccccccccccccccccccccc" /></g></svg>
