0
SECTION
2
HEADER
9
$INSUNITS
70
4
9
$ACADVER
1
AC1014
9
$HANDSEED
5
FFFF
0
ENDSEC
0
SECTION
2
TABLES
0
TABLE
2
VPORT
5
8
100
AcDbSymbolTable
0
ENDTAB
0
TABLE
2
LTYPE
5
5
100
AcDbSymbolTable
0
LTYPE
5
14
100
AcDbSymbolTableRecord
100
AcDbLinetypeTableRecord
2
BYBLOCK
70
0
0
LTYPE
5
15
100
AcDbSymbolTableRecord
100
AcDbLinetypeTableRecord
2
BYLAYER
70
0
0
ENDTAB
0
TABLE
2
LAYER
5
2
100
AcDbSymbolTable
70
2
0
LAYER
5
50
100
AcDbSymbolTableRecord
100
AcDbLayerTableRecord
2
0
70
0
6
CONTINUOUS
0
ENDTAB
0
TABLE
2
STYLE
5
3
100
AcDbSymbolTable
70
1
0
STYLE
5
11
100
AcDbSymbolTableRecord
100
AcDbTextStyleTableRecord
2
STANDARD
70
0
0
ENDTAB
0
TABLE
2
VIEW
5
6
100
AcDbSymbolTable
70
0
0
ENDTAB
0
TABLE
2
UCS
5
7
100
AcDbSymbolTable
70
0
0
ENDTAB
0
TABLE
2
APPID
5
9
100
AcDbSymbolTable
70
2
0
APPID
5
12
100
AcDbSymbolTableRecord
100
AcDbRegAppTableRecord
2
ACAD
70
0
0
ENDTAB
0
TABLE
2
DIMSTYLE
5
A
100
AcDbSymbolTable
70
1
0
ENDTAB
0
TABLE
2
BLOCK_RECORD
5
1
100
AcDbSymbolTable
70
1
0
BLOCK_RECORD
5
1F
100
AcDbSymbolTableRecord
100
AcDbBlockTableRecord
2
*MODEL_SPACE
0
BLOCK_RECORD
5
1B
100
AcDbSymbolTableRecord
100
AcDbBlockTableRecord
2
*PAPER_SPACE
0
ENDTAB
0
ENDSEC
0
SECTION
2
BLOCKS
0
BLOCK
5
20
100
AcDbEntity
100
AcDbBlockBegin
2
*MODEL_SPACE
0
ENDBLK
5
21
100
AcDbEntity
100
AcDbBlockEnd
0
BLOCK
5
1C
100
AcDbEntity
100
AcDbBlockBegin
2
*PAPER_SPACE
0
ENDBLK
5
1D
100
AcDbEntity
100
AcDbBlockEnd
0
ENDSEC
0
SECTION
2
ENTITIES
0
LWPOLYLINE
5
100
100
AcDbEntity
8
0
100
AcDbPolyline
90
8
70
1
43
0.0
10
-36.499999999999986
20
64.249999999997982
10
36.5
20
64.249999999997982
42
-0.41421356237309503
10
37.5
20
63.249999999997982
10
37.5
20
-63.250000000002032
42
-0.41421356237309503
10
36.5
20
-64.250000000002032
10
-36.5
20
-64.250000000002032
42
-0.41421356237309503
10
-37.5
20
-63.250000000002032
10
-37.5
20
63.249999999997968
42
-0.41421356237309503
0
LWPOLYLINE
5
101
100
AcDbEntity
8
0
100
AcDbPolyline
90
8
70
1
43
0.0
10
-5.5200000000000049
20
48.029999999997969
10
11.879999999999995
20
48.029999999997969
42
-0.41421356237309503
10
12.179999999999998
20
47.729999999997965
10
12.179999999999996
20
30.329999999997959
42
-0.41421356237310153
10
11.879999999999995
20
30.029999999997958
10
-5.5200000000000049
20
30.029999999997958
42
-0.41421356237310264
10
-5.8200000000000056
20
30.329999999997959
10
-5.8200000000000074
20
47.729999999997965
42
-0.41421356237309503
0
CIRCLE
5
102
100
AcDbEntity
8
0
100
AcDbCircle
10
-22.500000000002267
20
27.249999999997971
30
0
40
6.0000000000000009
210
0
220
0
230
1
0
CIRCLE
5
103
100
AcDbEntity
8
0
100
AcDbCircle
10
-22.499999999997932
20
-12.750000000002032
30
0
40
6.0000000000000009
210
0
220
0
230
1
0
CIRCLE
5
104
100
AcDbEntity
8
0
100
AcDbCircle
10
-34.5
20
61.249999999997982
30
0
40
1.6000000000000003
210
0
220
0
230
1
0
LINE
5
105
100
AcDbEntity
8
0
100
AcDbLine
10
0
20
64.250000000002046
30
0
11
0
21
-64.250000000005883
31
0
0
LINE
5
106
100
AcDbEntity
8
0
100
AcDbLine
10
-37.5
20
-2.0382306953337093e-12
30
0
11
37.5
21
-2.0294876890147862e-12
31
0
0
CIRCLE
5
107
100
AcDbEntity
8
0
100
AcDbCircle
10
34.5
20
61.249999999997975
30
0
40
1.6000000000000003
210
0
220
0
230
1
0
LINE
5
108
100
AcDbEntity
8
0
100
AcDbLine
10
-22.500000000007738
20
77.740298030731964
30
0
11
-22.49999999999207
21
-66.854308587641228
31
0
0
CIRCLE
5
109
100
AcDbEntity
8
0
100
AcDbCircle
10
-34.499999999993165
20
-61.250000000001741
30
0
40
1.6000000000000003
210
0
220
0
230
1
0
CIRCLE
5
110
100
AcDbEntity
8
0
100
AcDbCircle
10
34.500000000006843
20
-61.249999999994245
30
0
40
1.6000000000000003
210
0
220
0
230
1
0
LWPOLYLINE
5
111
100
AcDbEntity
8
0
100
AcDbPolyline
90
4
70
1
43
0.0
10
-34.5
20
-32.750000000002018
10
-9
20
-32.750000000002018
10
-9
20
-42.350000000002012
10
-34.5
20
-42.350000000002012
0
LWPOLYLINE
5
112
100
AcDbEntity
8
0
100
AcDbPolyline
90
4
70
1
43
0.0
10
-9.0000000000000036
20
-54.950000000002021
10
-34.5
20
-54.950000000002021
10
-34.5
20
-45.350000000002019
10
-9.0000000000000036
20
-45.350000000002019
0
LINE
5
113
100
AcDbEntity
8
0
100
AcDbLine
10
-5.5200000000000049
20
47.729999999997965
30
0
11
11.879999999999997
21
30.329999999997955
31
0
0
LINE
5
114
100
AcDbEntity
8
0
100
AcDbLine
10
11.879999999999995
20
47.729999999997965
30
0
11
-5.5200000000000085
21
30.329999999997955
31
0
0
LWPOLYLINE
5
115
100
AcDbEntity
8
0
100
AcDbPolyline
90
8
70
1
43
0.0
10
32.5
20
47.729999999997965
42
0.41421356237309503
10
32.199999999999996
20
48.029999999997969
10
14.799999999999995
20
48.029999999997969
42
0.41421356237309503
10
14.499999999999995
20
47.729999999997965
10
14.499999999999995
20
30.329999999997959
42
0.41421356237310375
10
14.799999999999995
20
30.029999999997958
10
32.199999999999996
20
30.029999999997958
42
0.41421356237309936
10
32.499999999999993
20
30.329999999997959
0
LINE
5
116
100
AcDbEntity
8
0
100
AcDbLine
10
32.199999999999996
20
47.729999999997965
30
0
11
14.79999999999999
21
30.329999999997955
31
0
0
LINE
5
117
100
AcDbEntity
8
0
100
AcDbLine
10
14.799999999999995
20
47.729999999997965
30
0
11
32.199999999999996
21
30.329999999997955
31
0
0
LWPOLYLINE
5
118
100
AcDbEntity
8
0
100
AcDbPolyline
90
8
70
1
43
0.0
10
12.179999999999998
20
27.409999999997964
42
0.41421356237309503
10
11.879999999999995
20
27.709999999997965
10
-5.5200000000000049
20
27.709999999997965
42
0.41421356237309503
10
-5.8200000000000056
20
27.409999999997964
10
-5.8200000000000056
20
10.009999999997961
42
0.41421356237310264
10
-5.5200000000000049
20
9.709999999997958
10
11.879999999999995
20
9.709999999997958
42
0.41421356237310153
10
12.179999999999996
20
10.009999999997961
0
LINE
5
119
100
AcDbEntity
8
0
100
AcDbLine
10
11.879999999999995
20
27.409999999997964
30
0
11
-5.5200000000000085
21
10.009999999997955
31
0
0
LINE
5
120
100
AcDbEntity
8
0
100
AcDbLine
10
-5.5200000000000049
20
27.409999999997964
30
0
11
11.879999999999997
21
10.009999999997955
31
0
0
LWPOLYLINE
5
121
100
AcDbEntity
8
0
100
AcDbPolyline
90
8
70
1
43
0.0
10
32.5
20
27.409999999997964
42
0.41421356237309503
10
32.199999999999996
20
27.709999999997965
10
14.799999999999995
20
27.709999999997965
42
0.41421356237309503
10
14.499999999999995
20
27.409999999997964
10
14.499999999999995
20
10.009999999997961
42
0.41421356237310375
10
14.799999999999995
20
9.709999999997958
10
32.199999999999996
20
9.709999999997958
42
0.41421356237309936
10
32.499999999999993
20
10.009999999997961
0
LINE
5
122
100
AcDbEntity
8
0
100
AcDbLine
10
32.199999999999996
20
27.409999999997964
30
0
11
14.79999999999999
21
10.009999999997955
31
0
0
LINE
5
123
100
AcDbEntity
8
0
100
AcDbLine
10
14.799999999999995
20
27.409999999997964
30
0
11
32.199999999999996
21
10.009999999997955
31
0
0
LWPOLYLINE
5
124
100
AcDbEntity
8
0
100
AcDbPolyline
90
8
70
1
43
0.0
10
12.179999999999998
20
7.0899999999979624
42
0.41421356237309503
10
11.879999999999995
20
7.3899999999979649
10
-5.5200000000000049
20
7.3899999999979649
42
0.41421356237309503
10
-5.8200000000000056
20
7.0899999999979624
10
-5.8200000000000056
20
-10.31000000000204
42
0.41421356237310264
10
-5.5200000000000049
20
-10.610000000002042
10
11.879999999999995
20
-10.610000000002042
42
0.41421356237310153
10
12.179999999999996
20
-10.31000000000204
0
LINE
5
125
100
AcDbEntity
8
0
100
AcDbLine
10
11.879999999999995
20
7.0899999999979624
30
0
11
-5.5200000000000085
21
-10.310000000002045
31
0
0
LINE
5
126
100
AcDbEntity
8
0
100
AcDbLine
10
-5.5200000000000049
20
7.0899999999979624
30
0
11
11.879999999999997
21
-10.310000000002045
31
0
0
LWPOLYLINE
5
127
100
AcDbEntity
8
0
100
AcDbPolyline
90
8
70
1
43
0.0
10
32.5
20
7.0899999999979624
42
0.41421356237309503
10
32.199999999999996
20
7.3899999999979649
10
14.799999999999995
20
7.3899999999979649
42
0.41421356237309503
10
14.499999999999995
20
7.0899999999979624
10
14.499999999999995
20
-10.31000000000204
42
0.41421356237310375
10
14.799999999999995
20
-10.610000000002042
10
32.199999999999996
20
-10.610000000002042
42
0.41421356237309936
10
32.499999999999993
20
-10.31000000000204
0
LINE
5
128
100
AcDbEntity
8
0
100
AcDbLine
10
32.199999999999996
20
7.0899999999979624
30
0
11
14.79999999999999
21
-10.310000000002045
31
0
0
LINE
5
129
100
AcDbEntity
8
0
100
AcDbLine
10
14.799999999999995
20
7.0899999999979624
30
0
11
32.199999999999996
21
-10.310000000002045
31
0
0
LWPOLYLINE
5
130
100
AcDbEntity
8
0
100
AcDbPolyline
90
8
70
1
43
0.0
10
12.179999999999998
20
-13.230000000002038
42
0.41421356237309503
10
11.879999999999995
20
-12.930000000002035
10
-5.5200000000000049
20
-12.930000000002035
42
0.41421356237309503
10
-5.8200000000000056
20
-13.230000000002038
10
-5.8200000000000056
20
-30.630000000002042
42
0.41421356237310264
10
-5.5200000000000049
20
-30.930000000002043
10
11.879999999999995
20
-30.930000000002043
42
0.41421356237310153
10
12.179999999999996
20
-30.630000000002042
0
LINE
5
131
100
AcDbEntity
8
0
100
AcDbLine
10
11.879999999999995
20
-13.230000000002038
30
0
11
-5.5200000000000085
21
-30.630000000002045
31
0
0
LINE
5
132
100
AcDbEntity
8
0
100
AcDbLine
10
-5.5200000000000049
20
-13.230000000002038
30
0
11
11.879999999999997
21
-30.630000000002045
31
0
0
LWPOLYLINE
5
133
100
AcDbEntity
8
0
100
AcDbPolyline
90
8
70
1
43
0.0
10
32.5
20
-13.230000000002038
42
0.41421356237309503
10
32.199999999999996
20
-12.930000000002035
10
14.799999999999995
20
-12.930000000002035
42
0.41421356237309503
10
14.499999999999995
20
-13.230000000002038
10
14.499999999999995
20
-30.630000000002042
42
0.41421356237310375
10
14.799999999999995
20
-30.930000000002043
10
32.199999999999996
20
-30.930000000002043
42
0.41421356237309936
10
32.499999999999993
20
-30.630000000002042
0
LINE
5
134
100
AcDbEntity
8
0
100
AcDbLine
10
32.199999999999996
20
-13.230000000002038
30
0
11
14.79999999999999
21
-30.630000000002045
31
0
0
LINE
5
135
100
AcDbEntity
8
0
100
AcDbLine
10
14.799999999999995
20
-13.230000000002038
30
0
11
32.199999999999996
21
-30.630000000002045
31
0
0
LWPOLYLINE
5
136
100
AcDbEntity
8
0
100
AcDbPolyline
90
8
70
1
43
0.0
10
12.179999999999998
20
-33.550000000002036
42
0.41421356237309503
10
11.879999999999995
20
-33.250000000002032
10
-5.5200000000000049
20
-33.250000000002032
42
0.41421356237309503
10
-5.8200000000000056
20
-33.550000000002036
10
-5.8200000000000056
20
-50.950000000002042
42
0.41421356237310702
10
-5.5200000000000049
20
-51.250000000002046
10
11.879999999999995
20
-51.250000000002046
42
0.41421356237310591
10
12.179999999999996
20
-50.950000000002042
0
LINE
5
137
100
AcDbEntity
8
0
100
AcDbLine
10
11.879999999999995
20
-33.550000000002036
30
0
11
-5.5200000000000085
21
-50.950000000002049
31
0
0
LINE
5
138
100
AcDbEntity
8
0
100
AcDbLine
10
-5.5200000000000049
20
-33.550000000002036
30
0
11
11.879999999999997
21
-50.950000000002049
31
0
0
LWPOLYLINE
5
139
100
AcDbEntity
8
0
100
AcDbPolyline
90
8
70
1
43
0.0
10
32.5
20
-33.550000000002036
42
0.41421356237309503
10
32.199999999999996
20
-33.250000000002032
10
14.799999999999995
20
-33.250000000002032
42
0.41421356237309503
10
14.499999999999995
20
-33.550000000002036
10
14.499999999999995
20
-50.950000000002042
42
0.41421356237310802
10
14.799999999999995
20
-51.250000000002046
10
32.199999999999996
20
-51.250000000002046
42
0.41421356237310375
10
32.499999999999993
20
-50.950000000002042
0
LINE
5
140
100
AcDbEntity
8
0
100
AcDbLine
10
32.199999999999996
20
-33.550000000002036
30
0
11
14.79999999999999
21
-50.950000000002049
31
0
0
LINE
5
141
100
AcDbEntity
8
0
100
AcDbLine
10
14.799999999999995
20
-33.550000000002036
30
0
11
32.199999999999996
21
-50.950000000002049
31
0
0
ENDSEC
0
SECTION
2
OBJECTS
0
DICTIONARY
5
C
100
AcDbDictionary
3
ACAD_GROUP
350
D
3
ACAD_MLINESTYLE
350
17
0
DICTIONARY
5
D
100
AcDbDictionary
0
DICTIONARY
5
1A
330
C
100
AcDbDictionary
0
DICTIONARY
5
17
100
AcDbDictionary
0
ENDSEC
0
EOF
