0
SECTION
2
HEADER
9
$INSUNITS
70
4
9
$ACADVER
1
AC1014
9
$HANDSEED
5
FFFF
0
ENDSEC
0
SECTION
2
TABLES
0
TABLE
2
VPORT
5
8
100
AcDbSymbolTable
0
ENDTAB
0
TABLE
2
LTYPE
5
5
100
AcDbSymbolTable
0
LTYPE
5
14
100
AcDbSymbolTableRecord
100
AcDbLinetypeTableRecord
2
BYBLOCK
70
0
0
LTYPE
5
15
100
AcDbSymbolTableRecord
100
AcDbLinetypeTableRecord
2
BYLAYER
70
0
0
ENDTAB
0
TABLE
2
LAYER
5
2
100
AcDbSymbolTable
70
2
0
LAYER
5
50
100
AcDbSymbolTableRecord
100
AcDbLayerTableRecord
2
0
70
0
6
CONTINUOUS
0
ENDTAB
0
TABLE
2
STYLE
5
3
100
AcDbSymbolTable
70
1
0
STYLE
5
11
100
AcDbSymbolTableRecord
100
AcDbTextStyleTableRecord
2
STANDARD
70
0
0
ENDTAB
0
TABLE
2
VIEW
5
6
100
AcDbSymbolTable
70
0
0
ENDTAB
0
TABLE
2
UCS
5
7
100
AcDbSymbolTable
70
0
0
ENDTAB
0
TABLE
2
APPID
5
9
100
AcDbSymbolTable
70
2
0
APPID
5
12
100
AcDbSymbolTableRecord
100
AcDbRegAppTableRecord
2
ACAD
70
0
0
ENDTAB
0
TABLE
2
DIMSTYLE
5
A
100
AcDbSymbolTable
70
1
0
ENDTAB
0
TABLE
2
BLOCK_RECORD
5
1
100
AcDbSymbolTable
70
1
0
BLOCK_RECORD
5
1F
100
AcDbSymbolTableRecord
100
AcDbBlockTableRecord
2
*MODEL_SPACE
0
BLOCK_RECORD
5
1B
100
AcDbSymbolTableRecord
100
AcDbBlockTableRecord
2
*PAPER_SPACE
0
ENDTAB
0
ENDSEC
0
SECTION
2
BLOCKS
0
BLOCK
5
20
100
AcDbEntity
100
AcDbBlockBegin
2
*MODEL_SPACE
0
ENDBLK
5
21
100
AcDbEntity
100
AcDbBlockEnd
0
BLOCK
5
1C
100
AcDbEntity
100
AcDbBlockBegin
2
*PAPER_SPACE
0
ENDBLK
5
1D
100
AcDbEntity
100
AcDbBlockEnd
0
ENDSEC
0
SECTION
2
ENTITIES
0
LINE
5
100
100
AcDbEntity
8
0
100
AcDbLine
10
0
20
64.250000000002046
30
0
11
-29.499999999999972
21
64.250000000002046
31
0
0
ARC
5
101
100
AcDbEntity
8
0
100
AcDbCircle
10
-29.499999999999972
20
62.250000000002039
30
0
40
2.0000000000000018
210
0
220
-0
230
1
100
AcDbArc
50
90
51
180
0
LINE
5
102
100
AcDbEntity
8
0
100
AcDbLine
10
-31.499999999999972
20
62.250000000002039
30
0
11
-31.499999999999972
21
60.250000000002039
31
0
0
ARC
5
103
100
AcDbEntity
8
0
100
AcDbCircle
10
-33.499999999999972
20
60.250000000002039
30
0
40
2.0000000000000018
210
-0
220
0
230
1
100
AcDbArc
50
-90
51
0
0
LINE
5
104
100
AcDbEntity
8
0
100
AcDbLine
10
-33.499999999999972
20
58.250000000002032
30
0
11
-35.499999999999972
21
58.250000000002032
31
0
0
ARC
5
105
100
AcDbEntity
8
0
100
AcDbCircle
10
-35.499999999999972
20
56.250000000002032
30
0
40
2.0000000000000018
210
0
220
-0
230
1
100
AcDbArc
50
90
51
180
0
LINE
5
106
100
AcDbEntity
8
0
100
AcDbLine
10
-37.499999999999972
20
56.250000000002032
30
0
11
-37.5
21
-2.0339285811132868e-12
31
0
0
ARC
5
107
100
AcDbEntity
8
0
100
AcDbCircle
10
29.499999999999972
20
62.250000000002039
30
0
40
2.0000000000000018
210
0
220
-0
230
1
100
AcDbArc
50
0
51
90
0
LINE
5
108
100
AcDbEntity
8
0
100
AcDbLine
10
31.499999999999972
20
62.250000000002039
30
0
11
31.499999999999972
21
60.250000000002039
31
0
0
ARC
5
109
100
AcDbEntity
8
0
100
AcDbCircle
10
33.499999999999972
20
60.250000000002039
30
0
40
2.0000000000000018
210
0
220
0
230
1
100
AcDbArc
50
180
51
270
0
LINE
5
110
100
AcDbEntity
8
0
100
AcDbLine
10
33.499999999999972
20
58.250000000002032
30
0
11
35.499999999999972
21
58.250000000002032
31
0
0
ARC
5
111
100
AcDbEntity
8
0
100
AcDbCircle
10
35.499999999999972
20
56.250000000002032
30
0
40
2.0000000000000018
210
0
220
-0
230
1
100
AcDbArc
50
0
51
90
0
LINE
5
112
100
AcDbEntity
8
0
100
AcDbLine
10
37.499999999999972
20
56.250000000002032
30
0
11
37.5
21
-2.0339285811132868e-12
31
0
0
LINE
5
113
100
AcDbEntity
8
0
100
AcDbLine
10
0
20
64.250000000002046
30
0
11
29.499999999999972
21
64.250000000002046
31
0
0
LINE
5
114
100
AcDbEntity
8
0
100
AcDbLine
10
1.3322676295501878e-14
20
-64.250000000006111
30
0
11
29.499999999999993
21
-64.250000000006096
31
0
0
ARC
5
115
100
AcDbEntity
8
0
100
AcDbCircle
10
29.499999999999993
20
-62.250000000006089
30
0
40
2.0000000000000018
210
-0
220
0
230
1
100
AcDbArc
50
-90
51
0
0
LINE
5
116
100
AcDbEntity
8
0
100
AcDbLine
10
31.499999999999986
20
-62.250000000006089
30
0
11
31.499999999999986
21
-60.250000000006089
31
0
0
ARC
5
117
100
AcDbEntity
8
0
100
AcDbCircle
10
33.5
20
-60.250000000006089
30
0
40
2.0000000000000018
210
0
220
-0
230
1
100
AcDbArc
50
90
51
180
0
LINE
5
118
100
AcDbEntity
8
0
100
AcDbLine
10
33.5
20
-58.250000000006082
30
0
11
35.499999999999986
21
-58.250000000006082
31
0
0
ARC
5
119
100
AcDbEntity
8
0
100
AcDbCircle
10
35.499999999999979
20
-56.250000000006082
30
0
40
2.0000000000000018
210
-0
220
0
230
1
100
AcDbArc
50
-89.999999999999801
51
0
0
LINE
5
120
100
AcDbEntity
8
0
100
AcDbLine
10
37.499999999999986
20
-56.250000000006082
30
0
11
37.5
21
-2.0250467969162855e-12
31
0
0
ARC
5
121
100
AcDbEntity
8
0
100
AcDbCircle
10
-29.499999999999957
20
-62.250000000006111
30
0
40
2.0000000000000018
210
0
220
0
230
1
100
AcDbArc
50
180
51
270
0
LINE
5
122
100
AcDbEntity
8
0
100
AcDbLine
10
-31.499999999999957
20
-62.250000000006111
30
0
11
-31.499999999999957
21
-60.250000000006104
31
0
0
ARC
5
123
100
AcDbEntity
8
0
100
AcDbCircle
10
-33.499999999999957
20
-60.250000000006104
30
0
40
2.0000000000000018
210
0
220
-0
230
1
100
AcDbArc
50
0
51
90
0
LINE
5
124
100
AcDbEntity
8
0
100
AcDbLine
10
-33.499999999999957
20
-58.250000000006104
30
0
11
-35.499999999999957
21
-58.250000000006104
31
0
0
ARC
5
125
100
AcDbEntity
8
0
100
AcDbCircle
10
-35.499999999999957
20
-56.250000000006104
30
0
40
2.0000000000000018
210
0
220
0
230
1
100
AcDbArc
50
180
51
270
0
LINE
5
126
100
AcDbEntity
8
0
100
AcDbLine
10
-37.499999999999957
20
-56.250000000006104
30
0
11
-37.5
21
-2.0339285811132868e-12
31
0
0
LINE
5
127
100
AcDbEntity
8
0
100
AcDbLine
10
1.3322676295501878e-14
20
-64.250000000006111
30
0
11
-29.499999999999957
21
-64.250000000006111
31
0
0
CIRCLE
5
128
100
AcDbEntity
8
0
100
AcDbCircle
10
-22.500000000002267
20
27.249999999997971
30
0
40
6.0000000000000009
210
0
220
0
230
1
0
CIRCLE
5
129
100
AcDbEntity
8
0
100
AcDbCircle
10
-22.499999999997932
20
-12.750000000002032
30
0
40
6.0000000000000009
210
0
220
0
230
1
0
LINE
5
130
100
AcDbEntity
8
0
100
AcDbLine
10
-9
20
-42.350000000002012
30
0
11
-34.5
21
-42.350000000002012
31
0
0
LINE
5
131
100
AcDbEntity
8
0
100
AcDbLine
10
-34.5
20
-42.350000000002012
30
0
11
-34.5
21
-32.750000000002018
31
0
0
LINE
5
132
100
AcDbEntity
8
0
100
AcDbLine
10
-34.5
20
-32.750000000002018
30
0
11
-9
21
-32.750000000002018
31
0
0
LINE
5
133
100
AcDbEntity
8
0
100
AcDbLine
10
-9
20
-32.750000000002018
30
0
11
-9
21
-42.350000000002012
31
0
0
LINE
5
134
100
AcDbEntity
8
0
100
AcDbLine
10
-9.0000000000000036
20
-54.950000000002021
30
0
11
-34.5
21
-54.950000000002021
31
0
0
LINE
5
135
100
AcDbEntity
8
0
100
AcDbLine
10
-34.5
20
-54.950000000002021
30
0
11
-34.5
21
-45.350000000002019
31
0
0
LINE
5
136
100
AcDbEntity
8
0
100
AcDbLine
10
-9.0000000000000036
20
-45.350000000002019
30
0
11
-9.0000000000000036
21
-54.950000000002021
31
0
0
LINE
5
137
100
AcDbEntity
8
0
100
AcDbLine
10
-34.5
20
-45.350000000002019
30
0
11
-9.0000000000000036
21
-45.350000000002019
31
0
0
ARC
5
138
100
AcDbEntity
8
0
100
AcDbCircle
10
11.879999999999995
20
-33.550000000002036
30
0
40
0.30000000000000249
210
0
220
-0
230
1
100
AcDbArc
50
0
51
90
0
LINE
5
139
100
AcDbEntity
8
0
100
AcDbLine
10
12.179999999999998
20
-33.550000000002036
30
0
11
12.179999999999996
21
-50.950000000002042
31
0
0
ARC
5
140
100
AcDbEntity
8
0
100
AcDbCircle
10
11.879999999999997
20
-50.950000000002049
30
0
40
0.29999999999999361
210
0
220
0
230
1
100
AcDbArc
50
-90.000000000000369
51
0
0
LINE
5
141
100
AcDbEntity
8
0
100
AcDbLine
10
11.879999999999995
20
-51.250000000002046
30
0
11
-5.5200000000000049
21
-51.250000000002046
31
0
0
ARC
5
142
100
AcDbEntity
8
0
100
AcDbCircle
10
-5.5200000000000085
20
-50.950000000002049
30
0
40
0.29999999999999694
210
0
220
0
230
1
100
AcDbArc
50
180
51
270.00000000000068
0
LINE
5
143
100
AcDbEntity
8
0
100
AcDbLine
10
-5.8200000000000056
20
-50.950000000002042
30
0
11
-5.8200000000000056
21
-33.550000000002036
31
0
0
ARC
5
144
100
AcDbEntity
8
0
100
AcDbCircle
10
-5.5200000000000049
20
-33.550000000002036
30
0
40
0.30000000000000249
210
0
220
-0
230
1
100
AcDbArc
50
90
51
180
0
LINE
5
145
100
AcDbEntity
8
0
100
AcDbLine
10
-5.5200000000000049
20
-33.250000000002032
30
0
11
11.879999999999995
21
-33.250000000002032
31
0
0
ARC
5
146
100
AcDbEntity
8
0
100
AcDbCircle
10
32.199999999999996
20
-33.550000000002036
30
0
40
0.30000000000000249
210
0
220
-0
230
1
100
AcDbArc
50
0
51
90
0
LINE
5
147
100
AcDbEntity
8
0
100
AcDbLine
10
32.5
20
-33.550000000002036
30
0
11
32.499999999999993
21
-50.950000000002042
31
0
0
ARC
5
148
100
AcDbEntity
8
0
100
AcDbCircle
10
32.199999999999996
20
-50.950000000002049
30
0
40
0.29999999999999361
210
-0
220
0
230
1
100
AcDbArc
50
-90
51
0
0
LINE
5
149
100
AcDbEntity
8
0
100
AcDbLine
10
32.199999999999996
20
-51.250000000002046
30
0
11
14.799999999999995
21
-51.250000000002046
31
0
0
ARC
5
150
100
AcDbEntity
8
0
100
AcDbCircle
10
14.79999999999999
20
-50.950000000002049
30
0
40
0.29999999999999583
210
0
220
0
230
1
100
AcDbArc
50
180
51
270.00000000000102
0
LINE
5
151
100
AcDbEntity
8
0
100
AcDbLine
10
14.499999999999995
20
-50.950000000002042
30
0
11
14.499999999999995
21
-33.550000000002036
31
0
0
ARC
5
152
100
AcDbEntity
8
0
100
AcDbCircle
10
14.799999999999995
20
-33.550000000002036
30
0
40
0.30000000000000249
210
0
220
-0
230
1
100
AcDbArc
50
90
51
180
0
LINE
5
153
100
AcDbEntity
8
0
100
AcDbLine
10
14.799999999999995
20
-33.250000000002032
30
0
11
32.199999999999996
21
-33.250000000002032
31
0
0
ARC
5
154
100
AcDbEntity
8
0
100
AcDbCircle
10
32.199999999999996
20
-13.230000000002038
30
0
40
0.30000000000000249
210
0
220
-0
230
1
100
AcDbArc
50
0
51
90
0
LINE
5
155
100
AcDbEntity
8
0
100
AcDbLine
10
32.5
20
-13.230000000002038
30
0
11
32.499999999999993
21
-30.630000000002042
31
0
0
ARC
5
156
100
AcDbEntity
8
0
100
AcDbCircle
10
32.199999999999996
20
-30.630000000002045
30
0
40
0.29999999999999805
210
-0
220
0
230
1
100
AcDbArc
50
-90
51
0
0
LINE
5
157
100
AcDbEntity
8
0
100
AcDbLine
10
32.199999999999996
20
-30.930000000002043
30
0
11
14.799999999999995
21
-30.930000000002043
31
0
0
ARC
5
158
100
AcDbEntity
8
0
100
AcDbCircle
10
14.79999999999999
20
-30.630000000002045
30
0
40
0.29999999999999583
210
0
220
0
230
1
100
AcDbArc
50
180
51
270.00000000000102
0
LINE
5
159
100
AcDbEntity
8
0
100
AcDbLine
10
14.499999999999995
20
-30.630000000002042
30
0
11
14.499999999999995
21
-13.230000000002038
31
0
0
ARC
5
160
100
AcDbEntity
8
0
100
AcDbCircle
10
14.799999999999995
20
-13.230000000002038
30
0
40
0.30000000000000249
210
0
220
-0
230
1
100
AcDbArc
50
90
51
180
0
LINE
5
161
100
AcDbEntity
8
0
100
AcDbLine
10
14.799999999999995
20
-12.930000000002035
30
0
11
32.199999999999996
21
-12.930000000002035
31
0
0
ARC
5
162
100
AcDbEntity
8
0
100
AcDbCircle
10
11.879999999999995
20
-13.230000000002038
30
0
40
0.30000000000000249
210
0
220
-0
230
1
100
AcDbArc
50
0
51
90
0
LINE
5
163
100
AcDbEntity
8
0
100
AcDbLine
10
12.179999999999998
20
-13.230000000002038
30
0
11
12.179999999999996
21
-30.630000000002042
31
0
0
ARC
5
164
100
AcDbEntity
8
0
100
AcDbCircle
10
11.879999999999997
20
-30.630000000002045
30
0
40
0.29999999999999805
210
0
220
0
230
1
100
AcDbArc
50
-90.000000000000369
51
0
0
LINE
5
165
100
AcDbEntity
8
0
100
AcDbLine
10
11.879999999999995
20
-30.930000000002043
30
0
11
-5.5200000000000049
21
-30.930000000002043
31
0
0
ARC
5
166
100
AcDbEntity
8
0
100
AcDbCircle
10
-5.5200000000000085
20
-30.630000000002045
30
0
40
0.29999999999999694
210
0
220
0
230
1
100
AcDbArc
50
180
51
270.00000000000068
0
LINE
5
167
100
AcDbEntity
8
0
100
AcDbLine
10
-5.8200000000000056
20
-30.630000000002042
30
0
11
-5.8200000000000056
21
-13.230000000002038
31
0
0
ARC
5
168
100
AcDbEntity
8
0
100
AcDbCircle
10
-5.5200000000000049
20
-13.230000000002038
30
0
40
0.30000000000000249
210
0
220
-0
230
1
100
AcDbArc
50
90
51
180
0
LINE
5
169
100
AcDbEntity
8
0
100
AcDbLine
10
-5.5200000000000049
20
-12.930000000002035
30
0
11
11.879999999999995
21
-12.930000000002035
31
0
0
ARC
5
170
100
AcDbEntity
8
0
100
AcDbCircle
10
-5.5200000000000085
20
-10.310000000002045
30
0
40
0.29999999999999694
210
0
220
0
230
1
100
AcDbArc
50
180
51
270.00000000000068
0
LINE
5
171
100
AcDbEntity
8
0
100
AcDbLine
10
-5.8200000000000056
20
-10.31000000000204
30
0
11
-5.8200000000000056
21
7.0899999999979624
31
0
0
ARC
5
172
100
AcDbEntity
8
0
100
AcDbCircle
10
-5.5200000000000049
20
7.0899999999979624
30
0
40
0.30000000000000249
210
0
220
-0
230
1
100
AcDbArc
50
90
51
180
0
LINE
5
173
100
AcDbEntity
8
0
100
AcDbLine
10
-5.5200000000000049
20
7.3899999999979649
30
0
11
11.879999999999995
21
7.3899999999979649
31
0
0
ARC
5
174
100
AcDbEntity
8
0
100
AcDbCircle
10
11.879999999999995
20
7.0899999999979624
30
0
40
0.30000000000000249
210
0
220
-0
230
1
100
AcDbArc
50
0
51
90
0
LINE
5
175
100
AcDbEntity
8
0
100
AcDbLine
10
12.179999999999998
20
7.0899999999979624
30
0
11
12.179999999999996
21
-10.31000000000204
31
0
0
ARC
5
176
100
AcDbEntity
8
0
100
AcDbCircle
10
11.879999999999997
20
-10.310000000002045
30
0
40
0.29999999999999805
210
0
220
0
230
1
100
AcDbArc
50
-90.000000000000369
51
0
0
LINE
5
177
100
AcDbEntity
8
0
100
AcDbLine
10
11.879999999999995
20
-10.610000000002042
30
0
11
-5.5200000000000049
21
-10.610000000002042
31
0
0
ARC
5
178
100
AcDbEntity
8
0
100
AcDbCircle
10
14.79999999999999
20
-10.310000000002045
30
0
40
0.29999999999999583
210
0
220
0
230
1
100
AcDbArc
50
180
51
270.00000000000102
0
LINE
5
179
100
AcDbEntity
8
0
100
AcDbLine
10
14.499999999999995
20
-10.31000000000204
30
0
11
14.499999999999995
21
7.0899999999979624
31
0
0
ARC
5
180
100
AcDbEntity
8
0
100
AcDbCircle
10
14.799999999999995
20
7.0899999999979624
30
0
40
0.30000000000000249
210
0
220
-0
230
1
100
AcDbArc
50
90
51
180
0
LINE
5
181
100
AcDbEntity
8
0
100
AcDbLine
10
14.799999999999995
20
7.3899999999979649
30
0
11
32.199999999999996
21
7.3899999999979649
31
0
0
ARC
5
182
100
AcDbEntity
8
0
100
AcDbCircle
10
32.199999999999996
20
7.0899999999979624
30
0
40
0.30000000000000249
210
0
220
-0
230
1
100
AcDbArc
50
0
51
90
0
LINE
5
183
100
AcDbEntity
8
0
100
AcDbLine
10
32.5
20
7.0899999999979624
30
0
11
32.499999999999993
21
-10.31000000000204
31
0
0
ARC
5
184
100
AcDbEntity
8
0
100
AcDbCircle
10
32.199999999999996
20
-10.310000000002045
30
0
40
0.29999999999999805
210
-0
220
0
230
1
100
AcDbArc
50
-90
51
0
0
LINE
5
185
100
AcDbEntity
8
0
100
AcDbLine
10
32.199999999999996
20
-10.610000000002042
30
0
11
14.799999999999995
21
-10.610000000002042
31
0
0
ARC
5
186
100
AcDbEntity
8
0
100
AcDbCircle
10
14.79999999999999
20
10.009999999997955
30
0
40
0.29999999999999583
210
0
220
0
230
1
100
AcDbArc
50
180
51
270.00000000000102
0
LINE
5
187
100
AcDbEntity
8
0
100
AcDbLine
10
14.499999999999995
20
10.009999999997961
30
0
11
14.499999999999995
21
27.409999999997964
31
0
0
ARC
5
188
100
AcDbEntity
8
0
100
AcDbCircle
10
14.799999999999995
20
27.409999999997964
30
0
40
0.30000000000000249
210
0
220
-0
230
1
100
AcDbArc
50
90
51
180
0
LINE
5
189
100
AcDbEntity
8
0
100
AcDbLine
10
14.799999999999995
20
27.709999999997965
30
0
11
32.199999999999996
21
27.709999999997965
31
0
0
ARC
5
190
100
AcDbEntity
8
0
100
AcDbCircle
10
32.199999999999996
20
27.409999999997964
30
0
40
0.30000000000000249
210
0
220
-0
230
1
100
AcDbArc
50
0
51
90
0
LINE
5
191
100
AcDbEntity
8
0
100
AcDbLine
10
32.5
20
27.409999999997964
30
0
11
32.499999999999993
21
10.009999999997961
31
0
0
ARC
5
192
100
AcDbEntity
8
0
100
AcDbCircle
10
32.199999999999996
20
10.009999999997955
30
0
40
0.29999999999999805
210
-0
220
0
230
1
100
AcDbArc
50
-90
51
0
0
LINE
5
193
100
AcDbEntity
8
0
100
AcDbLine
10
32.199999999999996
20
9.709999999997958
30
0
11
14.799999999999995
21
9.709999999997958
31
0
0
ARC
5
194
100
AcDbEntity
8
0
100
AcDbCircle
10
-5.5200000000000085
20
10.009999999997955
30
0
40
0.29999999999999694
210
0
220
0
230
1
100
AcDbArc
50
180
51
270.00000000000068
0
LINE
5
195
100
AcDbEntity
8
0
100
AcDbLine
10
-5.8200000000000056
20
10.009999999997961
30
0
11
-5.8200000000000056
21
27.409999999997964
31
0
0
ARC
5
196
100
AcDbEntity
8
0
100
AcDbCircle
10
-5.5200000000000049
20
27.409999999997964
30
0
40
0.30000000000000249
210
0
220
-0
230
1
100
AcDbArc
50
90
51
180
0
LINE
5
197
100
AcDbEntity
8
0
100
AcDbLine
10
-5.5200000000000049
20
27.709999999997965
30
0
11
11.879999999999995
21
27.709999999997965
31
0
0
ARC
5
198
100
AcDbEntity
8
0
100
AcDbCircle
10
11.879999999999995
20
27.409999999997964
30
0
40
0.30000000000000249
210
0
220
-0
230
1
100
AcDbArc
50
0
51
90
0
LINE
5
199
100
AcDbEntity
8
0
100
AcDbLine
10
12.179999999999998
20
27.409999999997964
30
0
11
12.179999999999996
21
10.009999999997961
31
0
0
ARC
5
200
100
AcDbEntity
8
0
100
AcDbCircle
10
11.879999999999997
20
10.009999999997955
30
0
40
0.29999999999999805
210
0
220
0
230
1
100
AcDbArc
50
-90.000000000000369
51
0
0
LINE
5
201
100
AcDbEntity
8
0
100
AcDbLine
10
11.879999999999995
20
9.709999999997958
30
0
11
-5.5200000000000049
21
9.709999999997958
31
0
0
ARC
5
202
100
AcDbEntity
8
0
100
AcDbCircle
10
-5.5200000000000085
20
30.329999999997955
30
0
40
0.29999999999999694
210
0
220
0
230
1
100
AcDbArc
50
180
51
270.00000000000068
0
LINE
5
203
100
AcDbEntity
8
0
100
AcDbLine
10
-5.8200000000000056
20
30.329999999997959
30
0
11
-5.8200000000000056
21
47.729999999997965
31
0
0
ARC
5
204
100
AcDbEntity
8
0
100
AcDbCircle
10
-5.5200000000000049
20
47.729999999997965
30
0
40
0.30000000000000249
210
0
220
-0
230
1
100
AcDbArc
50
90
51
180
0
LINE
5
205
100
AcDbEntity
8
0
100
AcDbLine
10
-5.5200000000000049
20
48.029999999997969
30
0
11
11.879999999999995
21
48.029999999997969
31
0
0
ARC
5
206
100
AcDbEntity
8
0
100
AcDbCircle
10
11.879999999999995
20
47.729999999997965
30
0
40
0.30000000000000249
210
0
220
-0
230
1
100
AcDbArc
50
0
51
90
0
LINE
5
207
100
AcDbEntity
8
0
100
AcDbLine
10
12.179999999999998
20
47.729999999997965
30
0
11
12.179999999999996
21
30.329999999997959
31
0
0
ARC
5
208
100
AcDbEntity
8
0
100
AcDbCircle
10
11.879999999999997
20
30.329999999997955
30
0
40
0.29999999999999805
210
0
220
0
230
1
100
AcDbArc
50
-90.000000000000369
51
0
0
LINE
5
209
100
AcDbEntity
8
0
100
AcDbLine
10
11.879999999999995
20
30.029999999997958
30
0
11
-5.5200000000000049
21
30.029999999997958
31
0
0
ARC
5
210
100
AcDbEntity
8
0
100
AcDbCircle
10
14.79999999999999
20
30.329999999997955
30
0
40
0.29999999999999583
210
0
220
0
230
1
100
AcDbArc
50
180
51
270.00000000000102
0
LINE
5
211
100
AcDbEntity
8
0
100
AcDbLine
10
14.499999999999995
20
30.329999999997959
30
0
11
14.499999999999995
21
47.729999999997965
31
0
0
ARC
5
212
100
AcDbEntity
8
0
100
AcDbCircle
10
14.799999999999995
20
47.729999999997965
30
0
40
0.30000000000000249
210
0
220
-0
230
1
100
AcDbArc
50
90
51
180
0
LINE
5
213
100
AcDbEntity
8
0
100
AcDbLine
10
14.799999999999995
20
48.029999999997969
30
0
11
32.199999999999996
21
48.029999999997969
31
0
0
ARC
5
214
100
AcDbEntity
8
0
100
AcDbCircle
10
32.199999999999996
20
47.729999999997965
30
0
40
0.30000000000000249
210
0
220
-0
230
1
100
AcDbArc
50
0
51
90
0
LINE
5
215
100
AcDbEntity
8
0
100
AcDbLine
10
32.5
20
47.729999999997965
30
0
11
32.499999999999993
21
30.329999999997959
31
0
0
ARC
5
216
100
AcDbEntity
8
0
100
AcDbCircle
10
32.199999999999996
20
30.329999999997955
30
0
40
0.29999999999999805
210
-0
220
0
230
1
100
AcDbArc
50
-90
51
0
0
LINE
5
217
100
AcDbEntity
8
0
100
AcDbLine
10
32.199999999999996
20
30.029999999997958
30
0
11
14.799999999999995
21
30.029999999997958
31
0
0
ENDSEC
0
SECTION
2
OBJECTS
0
DICTIONARY
5
C
100
AcDbDictionary
3
ACAD_GROUP
350
D
3
ACAD_MLINESTYLE
350
17
0
DICTIONARY
5
D
100
AcDbDictionary
0
DICTIONARY
5
1A
330
C
100
AcDbDictionary
0
DICTIONARY
5
17
100
AcDbDictionary
0
ENDSEC
0
EOF
