<?xml version="1.0" encoding="UTF-8" standalone="no"?>
<!DOCTYPE svg PUBLIC "-//W3C//DTD SVG 1.1//EN" "http://www.w3.org/Graphics/SVG/1.1/DTD/svg11.dtd">
<svg width="100%" height="100%" viewBox="0 0 2268 1134" version="1.1" xmlns="http://www.w3.org/2000/svg" xmlns:xlink="http://www.w3.org/1999/xlink" xml:space="preserve" xmlns:serif="http://www.serif.com/" style="fill-rule:evenodd;clip-rule:evenodd;stroke-linecap:round;stroke-linejoin:round;stroke-miterlimit:2;">
    <g transform="matrix(1.33333,0,0,1.33333,0,0)">
        <g transform="matrix(1,0,0,1,1095.49,704.047)">
            <g id="_0" serif:id="0">
                <g transform="matrix(1,0,0,1,88.1038,-77.1866)">
                    <g id="LINE" transform="matrix(1,0,0,1,-289.229,-64.9969)">
                        <path d="M-575.085,-127.559L-76.943,-237.994" style="fill:none;stroke:rgb(255,0,0);stroke-width:0.1px;"/>
                    </g>
                    <g id="LINE1" serif:id="LINE" transform="matrix(1,0,0,1,-289.229,-64.9969)">
                        <path d="M325.128,-552.127L-76.943,-237.994" style="fill:none;stroke:rgb(255,0,0);stroke-width:0.1px;"/>
                    </g>
                    <g id="LINE2" serif:id="LINE" transform="matrix(1,0,0,1,-289.229,-64.9969)">
                        <path d="M-575.085,-127.559L-575.085,0" style="fill:none;stroke:rgb(255,0,0);stroke-width:0.1px;"/>
                    </g>
                    <g id="LINE3" serif:id="LINE" transform="matrix(1,0,0,1,-289.229,-64.9969)">
                        <path d="M-575.085,0L313.336,0" style="fill:none;stroke:rgb(255,0,0);stroke-width:0.1px;"/>
                    </g>
                    <g id="LINE4" serif:id="LINE" transform="matrix(1,0,0,1,-289.229,-64.9969)">
                        <path d="M325.128,-552.127L394.936,-462.778" style="fill:none;stroke:rgb(255,0,0);stroke-width:0.1px;"/>
                    </g>
                    <g id="CIRCLE" transform="matrix(1,0,0,1,-289.229,-64.9969)">
                        <path d="M-544.006,-110.65C-540.486,-110.65 -537.628,-113.508 -537.628,-117.028C-537.628,-120.548 -540.486,-123.406 -544.006,-123.406C-547.526,-123.406 -550.384,-120.548 -550.384,-117.028C-550.384,-113.508 -547.526,-110.65 -544.006,-110.65Z" style="fill:none;stroke:rgb(255,0,0);stroke-width:0.1px;"/>
                    </g>
                    <g id="CIRCLE1" serif:id="CIRCLE" transform="matrix(1,0,0,1,-289.229,-64.9969)">
                        <path d="M-539.098,-88.511C-535.577,-88.511 -532.72,-91.369 -532.72,-94.889C-532.72,-98.409 -535.577,-101.267 -539.098,-101.267C-542.618,-101.267 -545.475,-98.409 -545.475,-94.889C-545.475,-91.369 -542.618,-88.511 -539.098,-88.511Z" style="fill:none;stroke:rgb(255,0,0);stroke-width:0.1px;"/>
                    </g>
                    <g id="CIRCLE2" serif:id="CIRCLE" transform="matrix(1,0,0,1,-289.229,-64.9969)">
                        <path d="M-89.867,-211.331C-86.347,-211.331 -83.489,-214.188 -83.489,-217.708C-83.489,-221.229 -86.347,-224.086 -89.867,-224.086C-93.387,-224.086 -96.245,-221.229 -96.245,-217.708C-96.245,-214.188 -93.387,-211.331 -89.867,-211.331Z" style="fill:none;stroke:rgb(255,0,0);stroke-width:0.1px;"/>
                    </g>
                    <g id="CIRCLE3" serif:id="CIRCLE" transform="matrix(1,0,0,1,-289.229,-64.9969)">
                        <path d="M-84.958,-189.191C-81.438,-189.191 -78.58,-192.049 -78.58,-195.569C-78.58,-199.089 -81.438,-201.947 -84.958,-201.947C-88.479,-201.947 -91.336,-199.089 -91.336,-195.569C-91.336,-192.049 -88.479,-189.191 -84.958,-189.191Z" style="fill:none;stroke:rgb(255,0,0);stroke-width:0.1px;"/>
                    </g>
                    <g id="CIRCLE4" serif:id="CIRCLE" transform="matrix(1,0,0,1,-289.229,-64.9969)">
                        <path d="M-328.006,-158.536C-324.486,-158.536 -321.628,-161.394 -321.628,-164.914C-321.628,-168.434 -324.486,-171.292 -328.006,-171.292C-331.526,-171.292 -334.384,-168.434 -334.384,-164.914C-334.384,-161.394 -331.526,-158.536 -328.006,-158.536Z" style="fill:none;stroke:rgb(255,0,0);stroke-width:0.1px;"/>
                    </g>
                    <g id="CIRCLE5" serif:id="CIRCLE" transform="matrix(1,0,0,1,-289.229,-64.9969)">
                        <path d="M-305.866,-163.445C-302.346,-163.445 -299.488,-166.302 -299.488,-169.823C-299.488,-173.343 -302.346,-176.2 -305.866,-176.2C-309.386,-176.2 -312.244,-173.343 -312.244,-169.823C-312.244,-166.302 -309.386,-163.445 -305.866,-163.445Z" style="fill:none;stroke:rgb(255,0,0);stroke-width:0.1px;"/>
                    </g>
                    <g id="CIRCLE6" serif:id="CIRCLE" transform="matrix(1,0,0,1,-289.229,-64.9969)">
                        <path d="M-312.028,-138.851C-308.508,-138.851 -305.65,-141.709 -305.65,-145.229C-305.65,-148.749 -308.508,-151.607 -312.028,-151.607C-315.548,-151.607 -318.406,-148.749 -318.406,-145.229C-318.406,-141.709 -315.548,-138.851 -312.028,-138.851Z" style="fill:none;stroke:rgb(255,0,0);stroke-width:0.1px;"/>
                    </g>
                    <g id="CIRCLE7" serif:id="CIRCLE" transform="matrix(1,0,0,1,-289.229,-64.9969)">
                        <path d="M-39.108,-210.815C-35.588,-210.815 -32.73,-213.673 -32.73,-217.193C-32.73,-220.713 -35.588,-223.571 -39.108,-223.571C-42.628,-223.571 -45.486,-220.713 -45.486,-217.193C-45.486,-213.673 -42.628,-210.815 -39.108,-210.815Z" style="fill:none;stroke:rgb(255,0,0);stroke-width:0.1px;"/>
                    </g>
                    <g id="CIRCLE8" serif:id="CIRCLE" transform="matrix(1,0,0,1,-289.229,-64.9969)">
                        <path d="M44.992,-276.521C48.512,-276.521 51.37,-279.379 51.37,-282.899C51.37,-286.419 48.512,-289.277 44.992,-289.277C41.472,-289.277 38.614,-286.419 38.614,-282.899C38.614,-279.379 41.472,-276.521 44.992,-276.521Z" style="fill:none;stroke:rgb(255,0,0);stroke-width:0.1px;"/>
                    </g>
                    <g id="CIRCLE9" serif:id="CIRCLE" transform="matrix(1,0,0,1,-289.229,-64.9969)">
                        <path d="M327.559,-497.287C331.079,-497.287 333.937,-500.145 333.937,-503.665C333.937,-507.185 331.079,-510.043 327.559,-510.043C324.039,-510.043 321.181,-507.185 321.181,-503.665C321.181,-500.145 324.039,-497.287 327.559,-497.287Z" style="fill:none;stroke:rgb(255,0,0);stroke-width:0.1px;"/>
                    </g>
                    <g id="CIRCLE10" serif:id="CIRCLE" transform="matrix(1,0,0,1,-289.229,-64.9969)">
                        <path d="M-53.07,-228.685C-49.55,-228.685 -46.692,-231.543 -46.692,-235.063C-46.692,-238.583 -49.55,-241.441 -53.07,-241.441C-56.59,-241.441 -59.448,-238.583 -59.448,-235.063C-59.448,-231.543 -56.59,-228.685 -53.07,-228.685Z" style="fill:none;stroke:rgb(255,0,0);stroke-width:0.1px;"/>
                    </g>
                    <g id="CIRCLE11" serif:id="CIRCLE" transform="matrix(1,0,0,1,-289.229,-64.9969)">
                        <path d="M39.965,-301.372C43.485,-301.372 46.343,-304.23 46.343,-307.75C46.343,-311.27 43.485,-314.128 39.965,-314.128C36.445,-314.128 33.587,-311.27 33.587,-307.75C33.587,-304.23 36.445,-301.372 39.965,-301.372Z" style="fill:none;stroke:rgb(255,0,0);stroke-width:0.1px;"/>
                    </g>
                    <g id="CIRCLE12" serif:id="CIRCLE" transform="matrix(1,0,0,1,-289.229,-64.9969)">
                        <path d="M22.095,-287.411C25.615,-287.411 28.473,-290.268 28.473,-293.788C28.473,-297.309 25.615,-300.166 22.095,-300.166C18.575,-300.166 15.717,-297.309 15.717,-293.788C15.717,-290.268 18.575,-287.411 22.095,-287.411Z" style="fill:none;stroke:rgb(255,0,0);stroke-width:0.1px;"/>
                    </g>
                    <g id="CIRCLE13" serif:id="CIRCLE" transform="matrix(1,0,0,1,-289.229,-64.9969)">
                        <path d="M313.597,-515.157C317.117,-515.157 319.975,-518.015 319.975,-521.535C319.975,-525.055 317.117,-527.913 313.597,-527.913C310.077,-527.913 307.219,-525.055 307.219,-521.535C307.219,-518.015 310.077,-515.157 313.597,-515.157Z" style="fill:none;stroke:rgb(255,0,0);stroke-width:0.1px;"/>
                    </g>
                    <g id="LINE5" serif:id="LINE" transform="matrix(1,0,0,1,-289.229,-64.9969)">
                        <path d="M333.025,-111.663L324.65,-113.14" style="fill:none;stroke:rgb(255,0,0);stroke-width:0.1px;"/>
                    </g>
                    <g id="LINE6" serif:id="LINE" transform="matrix(1,0,0,1,-289.229,-64.9969)">
                        <path d="M328.201,-84.306L319.826,-85.782" style="fill:none;stroke:rgb(255,0,0);stroke-width:0.1px;"/>
                    </g>
                    <g id="LINE7" serif:id="LINE" transform="matrix(1,0,0,1,-289.229,-64.9969)">
                        <path d="M323.18,-55.832L314.805,-57.308" style="fill:none;stroke:rgb(255,0,0);stroke-width:0.1px;"/>
                    </g>
                    <g id="LINE8" serif:id="LINE" transform="matrix(1,0,0,1,-289.229,-64.9969)">
                        <path d="M318.356,-28.474L309.982,-29.951" style="fill:none;stroke:rgb(255,0,0);stroke-width:0.1px;"/>
                    </g>
                    <g id="LINE9" serif:id="LINE" transform="matrix(1,0,0,1,-289.229,-64.9969)">
                        <path d="M314.805,-57.308L309.982,-29.951" style="fill:none;stroke:rgb(255,0,0);stroke-width:0.1px;"/>
                    </g>
                    <g id="LINE10" serif:id="LINE" transform="matrix(1,0,0,1,-289.229,-64.9969)">
                        <path d="M324.65,-113.14L319.826,-85.782" style="fill:none;stroke:rgb(255,0,0);stroke-width:0.1px;"/>
                    </g>
                    <g id="LINE11" serif:id="LINE" transform="matrix(1,0,0,1,-289.229,-64.9969)">
                        <path d="M338.046,-140.137L329.671,-141.614" style="fill:none;stroke:rgb(255,0,0);stroke-width:0.1px;"/>
                    </g>
                    <g id="LINE12" serif:id="LINE" transform="matrix(1,0,0,1,-289.229,-64.9969)">
                        <path d="M334.495,-168.972L342.869,-167.495" style="fill:none;stroke:rgb(255,0,0);stroke-width:0.1px;"/>
                    </g>
                    <g id="LINE13" serif:id="LINE" transform="matrix(1,0,0,1,-289.229,-64.9969)">
                        <path d="M334.495,-168.972L329.671,-141.614" style="fill:none;stroke:rgb(255,0,0);stroke-width:0.1px;"/>
                    </g>
                    <g id="LINE14" serif:id="LINE" transform="matrix(1,0,0,1,-289.229,-64.9969)">
                        <path d="M394.936,-462.778L342.869,-167.495" style="fill:none;stroke:rgb(255,0,0);stroke-width:0.1px;"/>
                    </g>
                    <g id="LINE15" serif:id="LINE" transform="matrix(1,0,0,1,-289.229,-64.9969)">
                        <path d="M338.046,-140.137L333.025,-111.663" style="fill:none;stroke:rgb(255,0,0);stroke-width:0.1px;"/>
                    </g>
                    <g id="LINE16" serif:id="LINE" transform="matrix(1,0,0,1,-289.229,-64.9969)">
                        <path d="M328.201,-84.306L323.18,-55.832" style="fill:none;stroke:rgb(255,0,0);stroke-width:0.1px;"/>
                    </g>
                    <g id="LINE17" serif:id="LINE" transform="matrix(1,0,0,1,-289.229,-64.9969)">
                        <path d="M318.356,-28.474L313.336,0" style="fill:none;stroke:rgb(255,0,0);stroke-width:0.1px;"/>
                    </g>
                </g>
                <g transform="matrix(-1,1.22465e-16,-1.22465e-16,-1,-980.782,-759.308)">
                    <g id="LINE18" serif:id="LINE" transform="matrix(1,0,0,1,-289.229,-64.9969)">
                        <path d="M-575.085,-127.559L-76.943,-237.994" style="fill:none;stroke:rgb(255,0,0);stroke-width:0.1px;"/>
                    </g>
                    <g id="LINE19" serif:id="LINE" transform="matrix(1,0,0,1,-289.229,-64.9969)">
                        <path d="M325.128,-552.127L-76.943,-237.994" style="fill:none;stroke:rgb(255,0,0);stroke-width:0.1px;"/>
                    </g>
                    <g id="LINE20" serif:id="LINE" transform="matrix(1,0,0,1,-289.229,-64.9969)">
                        <path d="M-575.085,-127.559L-575.085,0" style="fill:none;stroke:rgb(255,0,0);stroke-width:0.1px;"/>
                    </g>
                    <g id="LINE21" serif:id="LINE" transform="matrix(1,0,0,1,-289.229,-64.9969)">
                        <path d="M-575.085,0L313.336,0" style="fill:none;stroke:rgb(255,0,0);stroke-width:0.1px;"/>
                    </g>
                    <g id="LINE22" serif:id="LINE" transform="matrix(1,0,0,1,-289.229,-64.9969)">
                        <path d="M325.128,-552.127L394.936,-462.778" style="fill:none;stroke:rgb(255,0,0);stroke-width:0.1px;"/>
                    </g>
                    <g id="CIRCLE14" serif:id="CIRCLE" transform="matrix(1,0,0,1,-289.229,-64.9969)">
                        <path d="M-544.006,-110.65C-540.486,-110.65 -537.628,-113.508 -537.628,-117.028C-537.628,-120.548 -540.486,-123.406 -544.006,-123.406C-547.526,-123.406 -550.384,-120.548 -550.384,-117.028C-550.384,-113.508 -547.526,-110.65 -544.006,-110.65Z" style="fill:none;stroke:rgb(255,0,0);stroke-width:0.1px;"/>
                    </g>
                    <g id="CIRCLE15" serif:id="CIRCLE" transform="matrix(1,0,0,1,-289.229,-64.9969)">
                        <path d="M-539.098,-88.511C-535.577,-88.511 -532.72,-91.369 -532.72,-94.889C-532.72,-98.409 -535.577,-101.267 -539.098,-101.267C-542.618,-101.267 -545.475,-98.409 -545.475,-94.889C-545.475,-91.369 -542.618,-88.511 -539.098,-88.511Z" style="fill:none;stroke:rgb(255,0,0);stroke-width:0.1px;"/>
                    </g>
                    <g id="CIRCLE16" serif:id="CIRCLE" transform="matrix(1,0,0,1,-289.229,-64.9969)">
                        <path d="M-89.867,-211.331C-86.347,-211.331 -83.489,-214.188 -83.489,-217.708C-83.489,-221.229 -86.347,-224.086 -89.867,-224.086C-93.387,-224.086 -96.245,-221.229 -96.245,-217.708C-96.245,-214.188 -93.387,-211.331 -89.867,-211.331Z" style="fill:none;stroke:rgb(255,0,0);stroke-width:0.1px;"/>
                    </g>
                    <g id="CIRCLE17" serif:id="CIRCLE" transform="matrix(1,0,0,1,-289.229,-64.9969)">
                        <path d="M-84.958,-189.191C-81.438,-189.191 -78.58,-192.049 -78.58,-195.569C-78.58,-199.089 -81.438,-201.947 -84.958,-201.947C-88.479,-201.947 -91.336,-199.089 -91.336,-195.569C-91.336,-192.049 -88.479,-189.191 -84.958,-189.191Z" style="fill:none;stroke:rgb(255,0,0);stroke-width:0.1px;"/>
                    </g>
                    <g id="CIRCLE18" serif:id="CIRCLE" transform="matrix(1,0,0,1,-289.229,-64.9969)">
                        <path d="M-328.006,-158.536C-324.486,-158.536 -321.628,-161.394 -321.628,-164.914C-321.628,-168.434 -324.486,-171.292 -328.006,-171.292C-331.526,-171.292 -334.384,-168.434 -334.384,-164.914C-334.384,-161.394 -331.526,-158.536 -328.006,-158.536Z" style="fill:none;stroke:rgb(255,0,0);stroke-width:0.1px;"/>
                    </g>
                    <g id="CIRCLE19" serif:id="CIRCLE" transform="matrix(1,0,0,1,-289.229,-64.9969)">
                        <path d="M-305.866,-163.445C-302.346,-163.445 -299.488,-166.302 -299.488,-169.823C-299.488,-173.343 -302.346,-176.2 -305.866,-176.2C-309.386,-176.2 -312.244,-173.343 -312.244,-169.823C-312.244,-166.302 -309.386,-163.445 -305.866,-163.445Z" style="fill:none;stroke:rgb(255,0,0);stroke-width:0.1px;"/>
                    </g>
                    <g id="CIRCLE20" serif:id="CIRCLE" transform="matrix(1,0,0,1,-289.229,-64.9969)">
                        <path d="M-312.028,-138.851C-308.508,-138.851 -305.65,-141.709 -305.65,-145.229C-305.65,-148.749 -308.508,-151.607 -312.028,-151.607C-315.548,-151.607 -318.406,-148.749 -318.406,-145.229C-318.406,-141.709 -315.548,-138.851 -312.028,-138.851Z" style="fill:none;stroke:rgb(255,0,0);stroke-width:0.1px;"/>
                    </g>
                    <g id="CIRCLE21" serif:id="CIRCLE" transform="matrix(1,0,0,1,-289.229,-64.9969)">
                        <path d="M-39.108,-210.815C-35.588,-210.815 -32.73,-213.673 -32.73,-217.193C-32.73,-220.713 -35.588,-223.571 -39.108,-223.571C-42.628,-223.571 -45.486,-220.713 -45.486,-217.193C-45.486,-213.673 -42.628,-210.815 -39.108,-210.815Z" style="fill:none;stroke:rgb(255,0,0);stroke-width:0.1px;"/>
                    </g>
                    <g id="CIRCLE22" serif:id="CIRCLE" transform="matrix(1,0,0,1,-289.229,-64.9969)">
                        <path d="M44.992,-276.521C48.512,-276.521 51.37,-279.379 51.37,-282.899C51.37,-286.419 48.512,-289.277 44.992,-289.277C41.472,-289.277 38.614,-286.419 38.614,-282.899C38.614,-279.379 41.472,-276.521 44.992,-276.521Z" style="fill:none;stroke:rgb(255,0,0);stroke-width:0.1px;"/>
                    </g>
                    <g id="CIRCLE23" serif:id="CIRCLE" transform="matrix(1,0,0,1,-289.229,-64.9969)">
                        <path d="M327.559,-497.287C331.079,-497.287 333.937,-500.145 333.937,-503.665C333.937,-507.185 331.079,-510.043 327.559,-510.043C324.039,-510.043 321.181,-507.185 321.181,-503.665C321.181,-500.145 324.039,-497.287 327.559,-497.287Z" style="fill:none;stroke:rgb(255,0,0);stroke-width:0.1px;"/>
                    </g>
                    <g id="CIRCLE24" serif:id="CIRCLE" transform="matrix(1,0,0,1,-289.229,-64.9969)">
                        <path d="M-53.07,-228.685C-49.55,-228.685 -46.692,-231.543 -46.692,-235.063C-46.692,-238.583 -49.55,-241.441 -53.07,-241.441C-56.59,-241.441 -59.448,-238.583 -59.448,-235.063C-59.448,-231.543 -56.59,-228.685 -53.07,-228.685Z" style="fill:none;stroke:rgb(255,0,0);stroke-width:0.1px;"/>
                    </g>
                    <g id="CIRCLE25" serif:id="CIRCLE" transform="matrix(1,0,0,1,-289.229,-64.9969)">
                        <path d="M39.965,-301.372C43.485,-301.372 46.343,-304.23 46.343,-307.75C46.343,-311.27 43.485,-314.128 39.965,-314.128C36.445,-314.128 33.587,-311.27 33.587,-307.75C33.587,-304.23 36.445,-301.372 39.965,-301.372Z" style="fill:none;stroke:rgb(255,0,0);stroke-width:0.1px;"/>
                    </g>
                    <g id="CIRCLE26" serif:id="CIRCLE" transform="matrix(1,0,0,1,-289.229,-64.9969)">
                        <path d="M22.095,-287.411C25.615,-287.411 28.473,-290.268 28.473,-293.788C28.473,-297.309 25.615,-300.166 22.095,-300.166C18.575,-300.166 15.717,-297.309 15.717,-293.788C15.717,-290.268 18.575,-287.411 22.095,-287.411Z" style="fill:none;stroke:rgb(255,0,0);stroke-width:0.1px;"/>
                    </g>
                    <g id="CIRCLE27" serif:id="CIRCLE" transform="matrix(1,0,0,1,-289.229,-64.9969)">
                        <path d="M313.597,-515.157C317.117,-515.157 319.975,-518.015 319.975,-521.535C319.975,-525.055 317.117,-527.913 313.597,-527.913C310.077,-527.913 307.219,-525.055 307.219,-521.535C307.219,-518.015 310.077,-515.157 313.597,-515.157Z" style="fill:none;stroke:rgb(255,0,0);stroke-width:0.1px;"/>
                    </g>
                    <g id="LINE23" serif:id="LINE" transform="matrix(1,0,0,1,-289.229,-64.9969)">
                        <path d="M333.025,-111.663L324.65,-113.14" style="fill:none;stroke:rgb(255,0,0);stroke-width:0.1px;"/>
                    </g>
                    <g id="LINE24" serif:id="LINE" transform="matrix(1,0,0,1,-289.229,-64.9969)">
                        <path d="M328.201,-84.306L319.826,-85.782" style="fill:none;stroke:rgb(255,0,0);stroke-width:0.1px;"/>
                    </g>
                    <g id="LINE25" serif:id="LINE" transform="matrix(1,0,0,1,-289.229,-64.9969)">
                        <path d="M323.18,-55.832L314.805,-57.308" style="fill:none;stroke:rgb(255,0,0);stroke-width:0.1px;"/>
                    </g>
                    <g id="LINE26" serif:id="LINE" transform="matrix(1,0,0,1,-289.229,-64.9969)">
                        <path d="M318.356,-28.474L309.982,-29.951" style="fill:none;stroke:rgb(255,0,0);stroke-width:0.1px;"/>
                    </g>
                    <g id="LINE27" serif:id="LINE" transform="matrix(1,0,0,1,-289.229,-64.9969)">
                        <path d="M314.805,-57.308L309.982,-29.951" style="fill:none;stroke:rgb(255,0,0);stroke-width:0.1px;"/>
                    </g>
                    <g id="LINE28" serif:id="LINE" transform="matrix(1,0,0,1,-289.229,-64.9969)">
                        <path d="M324.65,-113.14L319.826,-85.782" style="fill:none;stroke:rgb(255,0,0);stroke-width:0.1px;"/>
                    </g>
                    <g id="LINE29" serif:id="LINE" transform="matrix(1,0,0,1,-289.229,-64.9969)">
                        <path d="M338.046,-140.137L329.671,-141.614" style="fill:none;stroke:rgb(255,0,0);stroke-width:0.1px;"/>
                    </g>
                    <g id="LINE30" serif:id="LINE" transform="matrix(1,0,0,1,-289.229,-64.9969)">
                        <path d="M334.495,-168.972L342.869,-167.495" style="fill:none;stroke:rgb(255,0,0);stroke-width:0.1px;"/>
                    </g>
                    <g id="LINE31" serif:id="LINE" transform="matrix(1,0,0,1,-289.229,-64.9969)">
                        <path d="M334.495,-168.972L329.671,-141.614" style="fill:none;stroke:rgb(255,0,0);stroke-width:0.1px;"/>
                    </g>
                    <g id="LINE32" serif:id="LINE" transform="matrix(1,0,0,1,-289.229,-64.9969)">
                        <path d="M394.936,-462.778L342.869,-167.495" style="fill:none;stroke:rgb(255,0,0);stroke-width:0.1px;"/>
                    </g>
                    <g id="LINE33" serif:id="LINE" transform="matrix(1,0,0,1,-289.229,-64.9969)">
                        <path d="M338.046,-140.137L333.025,-111.663" style="fill:none;stroke:rgb(255,0,0);stroke-width:0.1px;"/>
                    </g>
                    <g id="LINE34" serif:id="LINE" transform="matrix(1,0,0,1,-289.229,-64.9969)">
                        <path d="M328.201,-84.306L323.18,-55.832" style="fill:none;stroke:rgb(255,0,0);stroke-width:0.1px;"/>
                    </g>
                    <g id="LINE35" serif:id="LINE" transform="matrix(1,0,0,1,-289.229,-64.9969)">
                        <path d="M318.356,-28.474L313.336,0" style="fill:none;stroke:rgb(255,0,0);stroke-width:0.1px;"/>
                    </g>
                </g>
                <g transform="matrix(1,0,0,1,-3.8306,-53.6284)">
                    <g id="LINE36" serif:id="LINE" transform="matrix(1,0,0,1,-300.834,136.882)">
                        <path d="M-758.268,-170.079L-758.268,-141.165" style="fill:none;stroke:rgb(255,0,0);stroke-width:0.1px;"/>
                    </g>
                    <g id="LINE37" serif:id="LINE" transform="matrix(1,0,0,1,-300.834,136.882)">
                        <path d="M-758.268,-141.165L-749.764,-141.165" style="fill:none;stroke:rgb(255,0,0);stroke-width:0.1px;"/>
                    </g>
                    <g id="LINE38" serif:id="LINE" transform="matrix(1,0,0,1,-300.834,136.882)">
                        <path d="M-749.764,-141.165L-749.764,-113.386" style="fill:none;stroke:rgb(255,0,0);stroke-width:0.1px;"/>
                    </g>
                    <g id="LINE39" serif:id="LINE" transform="matrix(1,0,0,1,-300.834,136.882)">
                        <path d="M-749.764,-113.386L-758.268,-113.386" style="fill:none;stroke:rgb(255,0,0);stroke-width:0.1px;"/>
                    </g>
                    <g id="LINE40" serif:id="LINE" transform="matrix(1,0,0,1,-300.834,136.882)">
                        <path d="M-758.268,-113.386L-758.268,-84.472" style="fill:none;stroke:rgb(255,0,0);stroke-width:0.1px;"/>
                    </g>
                    <g id="LINE41" serif:id="LINE" transform="matrix(1,0,0,1,-300.834,136.882)">
                        <path d="M-758.268,-84.472L-749.764,-84.472" style="fill:none;stroke:rgb(255,0,0);stroke-width:0.1px;"/>
                    </g>
                    <g id="LINE42" serif:id="LINE" transform="matrix(1,0,0,1,-300.834,136.882)">
                        <path d="M-749.764,-84.472L-749.764,-56.693" style="fill:none;stroke:rgb(255,0,0);stroke-width:0.1px;"/>
                    </g>
                    <g id="LINE43" serif:id="LINE" transform="matrix(1,0,0,1,-300.834,136.882)">
                        <path d="M-749.764,-56.693L-758.268,-56.693" style="fill:none;stroke:rgb(255,0,0);stroke-width:0.1px;"/>
                    </g>
                    <g id="LINE44" serif:id="LINE" transform="matrix(1,0,0,1,-300.834,136.882)">
                        <path d="M-758.268,-56.693L-758.268,-27.78" style="fill:none;stroke:rgb(255,0,0);stroke-width:0.1px;"/>
                    </g>
                    <g id="LINE45" serif:id="LINE" transform="matrix(1,0,0,1,-300.834,136.882)">
                        <path d="M-758.268,-27.78L-749.764,-27.78" style="fill:none;stroke:rgb(255,0,0);stroke-width:0.1px;"/>
                    </g>
                    <g id="LINE46" serif:id="LINE" transform="matrix(1,0,0,1,-300.834,136.882)">
                        <path d="M-749.764,-27.78L-749.764,0" style="fill:none;stroke:rgb(255,0,0);stroke-width:0.1px;"/>
                    </g>
                    <g id="LINE47" serif:id="LINE" transform="matrix(1,0,0,1,-300.834,136.882)">
                        <path d="M-749.764,0L0,0" style="fill:none;stroke:rgb(255,0,0);stroke-width:0.1px;"/>
                    </g>
                    <g id="LINE48" serif:id="LINE" transform="matrix(1,0,0,1,-300.834,136.882)">
                        <path d="M-758.268,-170.079L-749.764,-170.079" style="fill:none;stroke:rgb(255,0,0);stroke-width:0.1px;"/>
                    </g>
                    <g id="LINE49" serif:id="LINE" transform="matrix(1,0,0,1,-300.834,136.882)">
                        <path d="M-749.764,-170.079L-749.764,-197.858" style="fill:none;stroke:rgb(255,0,0);stroke-width:0.1px;"/>
                    </g>
                    <g id="LINE50" serif:id="LINE" transform="matrix(1,0,0,1,-300.834,136.882)">
                        <path d="M-749.764,-197.858L-0,-197.858" style="fill:none;stroke:rgb(255,0,0);stroke-width:0.1px;"/>
                    </g>
                    <g id="LINE51" serif:id="LINE" transform="matrix(1,0,0,1,-300.834,136.882)">
                        <path d="M749.764,-56.693L758.268,-56.693" style="fill:none;stroke:rgb(255,0,0);stroke-width:0.1px;"/>
                    </g>
                    <g id="LINE52" serif:id="LINE" transform="matrix(1,0,0,1,-300.834,136.882)">
                        <path d="M758.268,-56.693L758.268,-27.78" style="fill:none;stroke:rgb(255,0,0);stroke-width:0.1px;"/>
                    </g>
                    <g id="LINE53" serif:id="LINE" transform="matrix(1,0,0,1,-300.834,136.882)">
                        <path d="M758.268,-84.472L749.764,-84.472" style="fill:none;stroke:rgb(255,0,0);stroke-width:0.1px;"/>
                    </g>
                    <g id="LINE54" serif:id="LINE" transform="matrix(1,0,0,1,-300.834,136.882)">
                        <path d="M749.764,-84.472L749.764,-56.693" style="fill:none;stroke:rgb(255,0,0);stroke-width:0.1px;"/>
                    </g>
                    <g id="LINE55" serif:id="LINE" transform="matrix(1,0,0,1,-300.834,136.882)">
                        <path d="M758.268,-113.386L758.268,-84.472" style="fill:none;stroke:rgb(255,0,0);stroke-width:0.1px;"/>
                    </g>
                    <g id="LINE56" serif:id="LINE" transform="matrix(1,0,0,1,-300.834,136.882)">
                        <path d="M749.764,-27.78L749.764,0" style="fill:none;stroke:rgb(255,0,0);stroke-width:0.1px;"/>
                    </g>
                    <g id="LINE57" serif:id="LINE" transform="matrix(1,0,0,1,-300.834,136.882)">
                        <path d="M749.764,-141.165L749.764,-113.386" style="fill:none;stroke:rgb(255,0,0);stroke-width:0.1px;"/>
                    </g>
                    <g id="LINE58" serif:id="LINE" transform="matrix(1,0,0,1,-300.834,136.882)">
                        <path d="M749.764,0L-0,0" style="fill:none;stroke:rgb(255,0,0);stroke-width:0.1px;"/>
                    </g>
                    <g id="LINE59" serif:id="LINE" transform="matrix(1,0,0,1,-300.834,136.882)">
                        <path d="M749.764,-170.079L749.764,-197.858" style="fill:none;stroke:rgb(255,0,0);stroke-width:0.1px;"/>
                    </g>
                    <g id="LINE60" serif:id="LINE" transform="matrix(1,0,0,1,-300.834,136.882)">
                        <path d="M758.268,-170.079L749.764,-170.079" style="fill:none;stroke:rgb(255,0,0);stroke-width:0.1px;"/>
                    </g>
                    <g id="LINE61" serif:id="LINE" transform="matrix(1,0,0,1,-300.834,136.882)">
                        <path d="M749.764,-113.386L758.268,-113.386" style="fill:none;stroke:rgb(255,0,0);stroke-width:0.1px;"/>
                    </g>
                    <g id="LINE62" serif:id="LINE" transform="matrix(1,0,0,1,-300.834,136.882)">
                        <path d="M749.764,-197.858L-0,-197.858" style="fill:none;stroke:rgb(255,0,0);stroke-width:0.1px;"/>
                    </g>
                    <g id="LINE63" serif:id="LINE" transform="matrix(1,0,0,1,-300.834,136.882)">
                        <path d="M758.268,-27.78L749.764,-27.78" style="fill:none;stroke:rgb(255,0,0);stroke-width:0.1px;"/>
                    </g>
                    <g id="LINE64" serif:id="LINE" transform="matrix(1,0,0,1,-300.834,136.882)">
                        <path d="M758.268,-141.165L749.764,-141.165" style="fill:none;stroke:rgb(255,0,0);stroke-width:0.1px;"/>
                    </g>
                    <g id="LINE65" serif:id="LINE" transform="matrix(1,0,0,1,-300.834,136.882)">
                        <path d="M758.268,-170.079L758.268,-141.165" style="fill:none;stroke:rgb(255,0,0);stroke-width:0.1px;"/>
                    </g>
                </g>
            </g>
        </g>
    </g>
</svg>
