0
SECTION
2
HEADER
9
$INSUNITS
70
4
9
$ACADVER
1
AC1014
9
$HANDSEED
5
FFFF
0
ENDSEC
0
SECTION
2
TABLES
0
TABLE
2
VPORT
5
8
100
AcDbSymbolTable
0
ENDTAB
0
TABLE
2
LTYPE
5
5
100
AcDbSymbolTable
0
LTYPE
5
14
100
AcDbSymbolTableRecord
100
AcDbLinetypeTableRecord
2
BYBLOCK
70
0
0
LTYPE
5
15
100
AcDbSymbolTableRecord
100
AcDbLinetypeTableRecord
2
BYLAYER
70
0
0
ENDTAB
0
TABLE
2
LAYER
5
2
100
AcDbSymbolTable
70
2
0
LAYER
5
50
100
AcDbSymbolTableRecord
100
AcDbLayerTableRecord
2
0
70
0
6
CONTINUOUS
0
ENDTAB
0
TABLE
2
STYLE
5
3
100
AcDbSymbolTable
70
1
0
STYLE
5
11
100
AcDbSymbolTableRecord
100
AcDbTextStyleTableRecord
2
STANDARD
70
0
0
ENDTAB
0
TABLE
2
VIEW
5
6
100
AcDbSymbolTable
70
0
0
ENDTAB
0
TABLE
2
UCS
5
7
100
AcDbSymbolTable
70
0
0
ENDTAB
0
TABLE
2
APPID
5
9
100
AcDbSymbolTable
70
2
0
APPID
5
12
100
AcDbSymbolTableRecord
100
AcDbRegAppTableRecord
2
ACAD
70
0
0
ENDTAB
0
TABLE
2
DIMSTYLE
5
A
100
AcDbSymbolTable
70
1
0
ENDTAB
0
TABLE
2
BLOCK_RECORD
5
1
100
AcDbSymbolTable
70
1
0
BLOCK_RECORD
5
1F
100
AcDbSymbolTableRecord
100
AcDbBlockTableRecord
2
*MODEL_SPACE
0
BLOCK_RECORD
5
1B
100
AcDbSymbolTableRecord
100
AcDbBlockTableRecord
2
*PAPER_SPACE
0
ENDTAB
0
ENDSEC
0
SECTION
2
BLOCKS
0
BLOCK
5
20
100
AcDbEntity
100
AcDbBlockBegin
2
*MODEL_SPACE
0
ENDBLK
5
21
100
AcDbEntity
100
AcDbBlockEnd
0
BLOCK
5
1C
100
AcDbEntity
100
AcDbBlockBegin
2
*PAPER_SPACE
0
ENDBLK
5
1D
100
AcDbEntity
100
AcDbBlockEnd
0
ENDSEC
0
SECTION
2
ENTITIES
0
LINE
5
100
100
AcDbEntity
8
0
100
AcDbLine
10
-202.87710738986721
20
44.999999999999488
30
0
11
-27.143826108284511
21
83.959130508881799
31
0
0
LINE
5
101
100
AcDbEntity
8
0
100
AcDbLine
10
-187.44206474128308
20
0
30
0
11
112.55793525871692
21
0
31
0
0
LINE
5
102
100
AcDbEntity
8
0
100
AcDbLine
10
114.69810954092816
20
194.77819606749676
30
0
11
-27.143826108284511
21
83.959130508881813
31
0
0
LINE
5
103
100
AcDbEntity
8
0
100
AcDbLine
10
-202.87710738986721
20
44.999999999999488
30
0
11
-202.87710738986658
21
-5.1781295504749424e-13
31
0
0
LINE
5
104
100
AcDbEntity
8
0
100
AcDbLine
10
-202.87710738986658
20
-5.1781295504749424e-13
30
0
11
110.53781961149394
21
0
31
0
0
LINE
5
105
100
AcDbEntity
8
0
100
AcDbLine
10
114.69810954092816
20
194.77819606749676
30
0
11
139.32456855395318
21
163.25776592322688
31
0
0
CIRCLE
5
106
100
AcDbEntity
8
0
100
AcDbCircle
10
-191.91313923575132
20
41.284976135267009
30
0
40
2.25
210
0
220
0
230
1
0
CIRCLE
5
107
100
AcDbEntity
8
0
100
AcDbCircle
10
-190.18162232424646
20
33.474608078307568
30
0
40
2.25
210
0
220
0
230
1
0
LINE
5
108
100
AcDbEntity
8
0
100
AcDbLine
10
-194.07916492263871
20
51.055286620260546
30
0
11
-189.24297954549942
21
29.240664114312281
31
0
0
CIRCLE
5
109
100
AcDbEntity
8
0
100
AcDbCircle
10
-31.702964467370247
20
76.802716782509677
30
0
40
2.25
210
0
220
0
230
1
0
CIRCLE
5
110
100
AcDbEntity
8
0
100
AcDbCircle
10
-29.971447555865481
20
68.992348725550343
30
0
40
2.25
210
0
220
0
230
1
0
LINE
5
111
100
AcDbEntity
8
0
100
AcDbLine
10
-34.284501528181877
20
88.447277955234597
30
0
11
-28.92838195742268
21
64.28738386077822
31
0
0
CIRCLE
5
112
100
AcDbEntity
8
0
100
AcDbCircle
10
-115.71323588004056
20
58.178088003135919
30
0
40
2.25
210
0
220
0
230
1
0
CIRCLE
5
113
100
AcDbEntity
8
0
100
AcDbCircle
10
-107.90286782307659
20
59.909604914641733
30
0
40
2.25
210
0
220
0
230
1
0
LINE
5
114
100
AcDbEntity
8
0
100
AcDbLine
10
-110.53831872659376
20
71.797355716102544
30
0
11
-104.84889441055211
21
46.134021072845364
31
0
0
LINE
5
115
100
AcDbEntity
8
0
100
AcDbLine
10
-118.12705329654514
20
69.066114750053927
30
0
11
-113.9817189685352
21
50.367719946176656
31
0
0
CIRCLE
5
116
100
AcDbEntity
8
0
100
AcDbCircle
10
-110.07653494005592
20
51.233478401928977
30
0
40
2.25
210
0
220
0
230
1
0
LINE
5
117
100
AcDbEntity
8
0
100
AcDbLine
10
-205.04003311465874
20
30.180577710716896
30
0
11
-27.200900285496349
21
69.606564267991146
31
0
0
LINE
5
118
100
AcDbEntity
8
0
100
AcDbLine
10
-19.322005241128203
20
72.303951714479027
30
0
11
121.5603529188374
21
182.37331317321582
31
0
0
CIRCLE
5
119
100
AcDbEntity
8
0
100
AcDbCircle
10
-13.796500932064209
20
76.62094881035101
30
0
40
2.25
210
0
220
0
230
1
0
CIRCLE
5
120
100
AcDbEntity
8
0
100
AcDbCircle
10
15.872103941210817
20
99.800603356344638
30
0
40
2.25
210
0
220
0
230
1
0
CIRCLE
5
121
100
AcDbEntity
8
0
100
AcDbCircle
10
115.5554642724673
20
177.68177998503415
30
0
40
2.25
210
0
220
0
230
1
0
LINE
5
122
100
AcDbEntity
8
0
100
AcDbLine
10
-25.998823166469155
20
92.239209047585632
30
0
11
-10.685477110356416
21
72.63901990220775
31
0
0
LINE
5
123
100
AcDbEntity
8
0
100
AcDbLine
10
3.1474675784243153
20
109.5903182096653
30
0
11
14.718501935589963
21
94.780069608388516
31
0
0
LINE
5
124
100
AcDbEntity
8
0
100
AcDbLine
10
9.3419896684948558
20
114.65584545890437
30
0
11
24.812978486445935
21
94.853882779613031
31
0
0
LINE
5
125
100
AcDbEntity
8
0
100
AcDbLine
10
104.10288310469056
20
192.34041541774278
30
0
11
117.06568683476274
21
175.74878325367482
31
0
0
CIRCLE
5
126
100
AcDbEntity
8
0
100
AcDbCircle
10
-18.721792734672679
20
82.925034839202283
30
0
40
2.25
210
0
220
0
230
1
0
CIRCLE
5
127
100
AcDbEntity
8
0
100
AcDbCircle
10
14.098855153030597
20
108.5673352865041
30
0
40
2.25
210
0
220
0
230
1
0
CIRCLE
5
128
100
AcDbEntity
8
0
100
AcDbCircle
10
7.7947691241772885
20
103.6420434838992
30
0
40
2.25
210
0
220
0
230
1
0
CIRCLE
5
129
100
AcDbEntity
8
0
100
AcDbCircle
10
110.63017246986217
20
183.98586601388809
30
0
40
2.25
210
0
220
0
230
1
0
LINE
5
130
100
AcDbEntity
8
0
100
AcDbLine
10
118.0022870125397
20
59.60940971406896
30
0
11
104.00750017427262
21
-19.758970451184442
31
0
0
LINE
5
131
100
AcDbEntity
8
0
100
AcDbLine
10
117.48374671823197
20
39.392310120825073
30
0
11
114.52932345919892
21
39.913254653825277
31
0
0
LINE
5
132
100
AcDbEntity
8
0
100
AcDbLine
10
115.7819945770956
20
29.741194141305584
30
0
11
112.82757131806194
21
30.262138674305827
31
0
0
LINE
5
133
100
AcDbEntity
8
0
100
AcDbLine
10
114.01078316489244
20
19.696155060581127
30
0
11
111.05635990585817
21
20.217099593581587
31
0
0
LINE
5
134
100
AcDbEntity
8
0
100
AcDbLine
10
112.30903102369665
20
10.045039080724511
30
0
11
109.35460776472119
21
10.565983614062128
31
0
0
LINE
5
135
100
AcDbEntity
8
0
100
AcDbLine
10
111.05635990585817
20
20.217099593581587
30
0
11
109.35460776472119
21
10.565983614062128
31
0
0
LINE
5
136
100
AcDbEntity
8
0
100
AcDbLine
10
114.52932345919892
20
39.913254653825277
30
0
11
112.82757131806194
21
30.262138674305827
31
0
0
LINE
5
137
100
AcDbEntity
8
0
100
AcDbLine
10
119.25495813043513
20
49.437349201549523
30
0
11
116.3005348714027
21
49.958293734549493
31
0
0
LINE
5
138
100
AcDbEntity
8
0
100
AcDbLine
10
118.0022870125397
20
59.60940971406896
30
0
11
120.95671027157147
21
59.088465181069132
31
0
0
LINE
5
139
100
AcDbEntity
8
0
100
AcDbLine
10
118.0022870125397
20
59.60940971406896
30
0
11
116.3005348714027
21
49.958293734549493
31
0
0
LINE
5
140
100
AcDbEntity
8
0
100
AcDbLine
10
139.32456855395318
20
163.25776592322688
30
0
11
120.95671027157147
21
59.088465181069132
31
0
0
LINE
5
141
100
AcDbEntity
8
0
100
AcDbLine
10
119.25495813043513
20
49.437349201549523
30
0
11
117.48374671823197
21
39.392310120825073
31
0
0
LINE
5
142
100
AcDbEntity
8
0
100
AcDbLine
10
115.7819945770956
20
29.741194141305584
30
0
11
114.01078316489244
21
19.696155060581127
31
0
0
LINE
5
143
100
AcDbEntity
8
0
100
AcDbLine
10
112.30903102369665
20
10.045039080724511
30
0
11
110.53781961149394
21
0
31
0
0
ENDSEC
0
SECTION
2
OBJECTS
0
DICTIONARY
5
C
100
AcDbDictionary
3
ACAD_GROUP
350
D
3
ACAD_MLINESTYLE
350
17
0
DICTIONARY
5
D
100
AcDbDictionary
0
DICTIONARY
5
1A
330
C
100
AcDbDictionary
0
DICTIONARY
5
17
100
AcDbDictionary
0
ENDSEC
0
EOF
